<svg width="112" height="112" viewBox="0 0 112 112" fill="none" xmlns="http://www.w3.org/2000/svg">
<g clip-path="url(#clip0)">
<path d="M62.8816 89.9865L62.7886 91.0825L64.2832 91.2094L64.3762 90.1134L62.8816 89.9865Z" fill="white"/>
<path d="M80.8999 79.2C80.0999 77.5 78.9999 76.2 77.6999 75.4L76.8999 76.7C77.9999 77.4 78.8999 78.5 79.5999 79.9C80.1999 81.2 80.6999 82.7 81.0999 84.2L82.4999 83.8C81.9999 82.2 81.5999 80.7 80.8999 79.2Z" fill="white"/>
<path d="M63.4001 68.5C62.4001 67.6 61.1001 66.6 59.6001 66.7L59.7001 68.2C60.6001 68.1 61.5001 68.9 62.4001 69.6L62.6001 69.8C64.4001 71.3 66.0001 72.1 67.6001 72.3L67.8001 70.8C66.5001 70.7 65.1001 70 63.6001 68.7L63.4001 68.5Z" fill="white"/>
<path d="M50.0998 63.3H49.6998C49.5998 63.3 47.7998 63.2 45.7998 64.8L45.6998 64.9C44.9998 65.5 44.1998 66.1 43.7998 67C43.1998 68.1 43.1998 69.4 43.6998 70.3C44.3998 71.6 45.6998 72.1 46.9998 72.1C47.2998 72.1 47.4998 72.1 47.7998 72C49.1998 71.7 50.3998 70.9 51.3998 70.2C51.6998 70 52.0998 69.7 52.3998 69.3C53.0998 68.1 52.1998 66.7 51.8998 66.1L50.0998 63.3ZM50.9998 68.5C50.8998 68.7 50.6998 68.8 50.4998 69C49.4998 69.7 48.4998 70.4 47.3998 70.6C46.4998 70.8 45.3998 70.5 44.8998 69.7C44.5998 69.2 44.6998 68.4 44.9998 67.7C45.2998 67.1 45.8998 66.6 46.4998 66.1L46.5998 66C47.6998 65.2 48.5998 64.9 49.0998 64.8L50.3998 66.9C50.9998 67.7 51.1998 68.2 50.9998 68.5Z" fill="white"/>
<path d="M55.8002 66.5L55.7002 68C55.8002 68 55.9002 68 56.0002 68C56.5002 68 57.0002 67.9 57.5002 67.8L57.1002 66.3C56.7002 66.5 56.2002 66.5 55.8002 66.5Z" fill="white"/>
<path d="M30.8002 24.5L31.8002 23.3C31.1002 22.7 30.5002 22.1 29.9002 21.4L28.7002 22.3C29.4002 23.1 30.1002 23.8 30.8002 24.5Z" fill="white"/>
<path d="M46.2998 12.7C46.2998 12.7 47.8998 14.3 48.4998 15L49.5998 14C48.8998 13.2 47.3998 11.7 47.2998 11.6L46.2998 12.7Z" fill="white"/>
<path d="M106.5 55.8C106.5 47.7 104.6 40.1 101.2 33.3C98.8 28.5 95.7 24.1 92 20.3C82.8 10.9 69.9 5 55.8 5C27.8 5 5 27.8 5 55.8C5 83.8 27.8 106.6 55.8 106.6C63.1 106.6 70.1 105 76.4 102.2L76.5 102.3C76.5 102.2 76.6 102.2 76.6 102.1C94.2 94.1 106.5 76.3 106.5 55.8ZM92.3 78.7C92.2 77.1 92.2 75 92.9 73.2C93.3 75.1 93 77.2 92.3 78.7ZM83.9 78.8C84.2 76.6 85 71.5 87.2 68C89.2 64.8 92.1 62.6 95.2 61.6C95.8 61.4 96.4 61.3 97.1 61.1C98 60.9 99 60.6 100 60.3C102.8 59.2 103.4 56.2 103.7 54.5C103.8 54.2 103.8 54 103.8 53.8C104.1 52.8 104.4 52.2 104.8 51.8C104.9 53.1 105 54.4 105 55.8C105 56.5 105 57.1 105 57.8C103.7 60.8 102.4 61.1 100.7 61.5C100 61.6 99.2 61.8 98.4 62.2C97.3 62.6 96.3 63.2 95.4 63.7C93.2 65 91.7 67.1 91.1 69.5C90.9 69.7 90.7 69.9 90.5 70.1C88.2 72.9 87.4 77.1 88.5 80.9C88.6 81.3 88.8 81.8 88.9 82.2C89 82.4 89 82.6 89.1 82.9C88.1 83.9 86.9 84.8 85.7 85.6C85.3 82.9 84.7 80.6 83.9 78.8ZM65.1 82.8C63.9 84.2 63.1 85.9 63 87.8L64.5 87.9C64.6 85.9 65.7 83.9 67.4 82.8C69.1 81.7 71.3 81.4 73.2 82.1C75.1 82.8 76.8 84.6 77.7 86.8C78 87.7 78.3 88.7 78.4 89.8C78.3 89.9 78.3 90 78.2 90.1C76.7 92.5 75.1 94.4 73.6 95.8C71.9 97.4 69.7 98.7 67.5 99.7C66.9 99.4 66.4 99.1 65.9 98.8C66.2 97.6 67 97.3 68.1 96.8C68.4 96.6 68.8 96.5 69.2 96.3C71 95.4 73 93.8 73.1 93.7C74.9 91.9 75.2 88.7 73.8 86.4C73.2 85.5 72.5 84.9 71.8 84.7C70.9 84.4 69.8 84.6 68.9 85.2C68.2 85.7 67.7 86.3 67.2 87.2C66.4 88.6 66.2 90 66.7 91.1L68.1 90.5C67.7 89.7 68.2 88.6 68.5 88C68.9 87.3 69.3 86.8 69.8 86.5C70.3 86.2 70.9 86 71.4 86.2C71.9 86.4 72.4 86.9 72.6 87.3C73.7 89 73.5 91.4 72.2 92.7C72.2 92.7 70.2 94.3 68.6 95.1C68.3 95.3 67.9 95.4 67.6 95.6C66.4 96.1 65.3 96.6 64.7 98.1C63 96.9 61.5 95.4 60 93.8C61.3 91.1 60.8 87.5 58.8 85.3C58.7 84.4 58.5 83.5 57.9 82.7C57 81.5 55.3 80.9 53.9 81.7C53.8 79 53.5 76.3 53.1 73.7L54.5 72.9C55.2 72.5 56 72 56.7 71.9C57.3 71.8 57.9 72 58.6 72.2C59.7 72.5 60.6 73.1 60.6 73.1C62.2 74.3 64.4 75.5 66.6 76.3C66.5 76.4 66.4 76.5 66.4 76.6C65 78 64.6 80.2 65.1 82.8ZM61.2 99.7C59.9 98.9 58.8 98.3 58 96.9C57.8 96.6 57.6 96.1 57.2 95.6C56.8 95 56.3 94.1 55.7 93.1C54.9 91.8 52.9 89.4 50.2 88.8L49.9 90.3C52.1 90.8 53.8 92.8 54.4 93.9C55 95 55.5 95.8 55.9 96.4C56.2 96.9 56.5 97.4 56.7 97.7C57.7 99.5 59 100.3 60.5 101.1C60.6 101.1 60.6 101.2 60.7 101.2C58.4 101.1 55.6 100.8 54.8 100.3C53.7 99.8 52.4 99.1 51.3 98.5C50.6 98.1 49.8 97.9 49 97.9C48.5 96.5 48.3 95 48.5 93.6L47 93.5C46.9 95 47 96.6 47.5 98C46.6 98.2 45.7 98.4 45.2 98.7C45.1 98.5 45 98.3 45 98.1C44.1 95.4 44 92.4 44 89.4L43.7 88.5C46.6 88.1 50.1 87.3 52.6 86.5C52.6 86.5 52.7 86.5 52.8 86.4C53.7 87.2 54.4 88.5 55.1 89.6C55.3 89.9 55.4 90.1 55.6 90.4C58.4 94.7 62 98.2 65.8 100.5C65.1 100.8 64.3 101 63.6 101.1C63.5 101.1 63.4 101.1 63.3 101.2C62.5 100.5 61.9 100.1 61.2 99.7ZM22.6 92.1C22.9 88 24.1 86.4 25.2 85C25.6 84.5 26 83.9 26.4 83.3C27.5 81.2 28.8 78.4 28.7 75.4C28.6 72.7 27.2 69.5 24.2 68.4C22.7 67.8 21.1 67.9 19.5 68C19 68 18.5 68.1 18 68.1C17 68.1 14.7 67.8 13.5 66.4C13 65.8 12.7 65 12.7 64.1C12.9 64.1 13.2 64.1 13.4 64.1C14.3 64.1 15.3 64 16.4 63.8C17.4 63.6 18.5 63.3 19.8 62.7C20.7 63 21.7 63.2 22.7 63.3C24.8 63.7 27.1 64.1 28.3 65.5C28.7 65.9 28.8 66.8 28.9 67.6C29.1 69.2 29.5 71.4 32 72.4C32.3 74.3 32.7 76.2 33.1 78L33.4 79.4C33.6 80.1 33.7 80.8 33.8 81.5H33.7C33.5 82.6 32.7 83.6 31.8 84.6C31.6 84.9 31.3 85.2 31.1 85.5C29.6 87.4 28.6 89.6 27.6 91.7L27.4 92.1C26.7 93.6 26.1 94.5 25.7 95C24.8 94 23.7 93.1 22.6 92.1ZM6.6 58.9C6.5 57.9 6.5 56.8 6.5 55.8C6.5 54.1 6.6 52.4 6.8 50.7C8.4 51.1 10.6 51.7 12.6 52.3C15.1 53 17.6 53.7 19.3 54.1C20 54.3 20.6 54.4 21.3 54.6C25 55.5 29 56.4 33 56.4C34.3 56.4 35.5 56.3 36.8 56.1C35.4 57.9 34.2 59.9 33.4 62C32.6 61.7 32.1 61.1 31.6 60.4C30.9 59.6 30.2 58.6 28.9 58.4C26.9 58.2 24.8 58.7 22.4 60C19.8 61.4 17.8 62.2 16.3 62.5C11.5 63.1 8.2 62 6.6 58.9ZM87.4 18.1C87.6 20.9 86.2 22.5 83.3 22.9C75.6 24 72.3 30.9 72.2 31.1C71.7 31.9 71.5 32.8 71.4 33.7C68.9 35.4 64.9 36.4 61.6 36.2C62 35.5 62.5 34.8 62.9 34.1C63.1 33.7 63.4 33.4 63.6 33C64.3 32 64.9 31 65.5 30C70.8 28.2 75.7 25.5 78.8 22.9C82.2 19.9 83.9 17.4 84.7 16C85.6 16.6 86.5 17.3 87.4 18.1ZM81.2 65C81.1 64.7 80.9 64.4 80.6 64.2C80.3 63.9 80 63.6 79.7 63.3C79.4 63 79.1 62.7 78.9 62.4C78.6 62 78.3 61.3 78.5 60.8C78.6 60.5 79 60.2 79.5 60.1C79.8 60 80.1 59.9 80.5 59.9C80.8 59.9 81 59.8 81.3 59.7C82.5 59.4 83.3 58.7 83.9 57.6C84.3 59 84.5 60.3 84.7 61.4C83.3 62.5 82.2 63.7 81.2 65ZM62.3 32.2C62 32.6 61.8 32.9 61.6 33.3C57.1 40.2 53.7 46.1 52.5 58.6C52 58.7 51.5 58.9 51 59C51.2 56.3 51.8 53.3 52.6 50C53.6 46 56.4 39.2 57.4 37.5C58.8 35 60.5 32.6 62.4 30.4L62.6 30.2C63.5 29.2 64.4 28.1 65.3 26.9C65.2 27.3 65 27.7 64.8 28.1C64.2 29.4 63.3 30.8 62.3 32.2ZM55.5 49.7C57.8 48.9 61.2 48.4 63.7 48.3C64.4 48.3 65.1 48.2 65.7 48.2C66.2 48.2 66.7 48.2 67.2 48.2C70.4 48.1 74.8 47.2 77.7 45.5C78.7 46.5 79.6 47.5 80.4 48.7C81.3 50 81.9 51.4 82.3 52.7C81.8 53.3 81.2 53.4 79.6 53.5H79.1C78.4 53.6 77.7 53.6 77 53.6C75.1 53.7 73 53.7 71.3 54.3H71.2C71.2 54.3 68.7 55.6 66.9 55.9L56.4 57.7C55.6 57.8 54.8 58 54 58.2C54.4 55 54.9 52.1 55.5 49.7ZM67.2 46.6C66.7 46.6 66.2 46.6 65.8 46.6C65.1 46.6 64.4 46.6 63.7 46.7C62.6 46.8 59 47 56.1 47.9C56.2 47.7 56.2 47.5 56.3 47.3C58.4 46.6 61.2 46 63.9 45.8C64.6 45.8 65.3 45.7 65.9 45.7C66.4 45.7 66.9 45.7 67.4 45.7H67.8C70.5 45.6 73.8 45.4 76.6 44C76.7 44.1 76.7 44.2 76.8 44.2C74 45.8 70.1 46.5 67.2 46.6ZM67.6 44.3H67.2C66.7 44.3 66.2 44.3 65.7 44.3C65 44.3 64.3 44.3 63.6 44.4C61.2 44.5 58.8 45 56.7 45.6C57.1 44.5 57.5 43.4 58 42.4C59 42.6 59.9 42.6 60.8 42.6C63.4 42.6 65.4 42 67.3 41.4C69.3 40.8 71.1 40.3 73.4 40.5C73.5 40.7 73.7 40.9 73.8 41.1C74.3 41.7 74.8 42.3 75.3 42.9C72.9 44.1 70 44.2 67.6 44.3ZM66.9 40.1C64.6 40.8 62.2 41.5 58.7 41C59.3 39.8 59.9 38.7 60.6 37.6C61.2 37.7 61.8 37.7 62.4 37.7C65.5 37.7 68.9 36.9 71.4 35.4C71.6 36.7 72 37.9 72.6 39C70.4 39.1 68.7 39.6 66.9 40.1ZM77.8 21.7C75.2 24 71 26.3 66.5 28C67.1 26.4 67.6 24.5 67.8 22.5C69.2 21.7 70.7 21.1 72.3 20.8C73.7 20.5 74.9 19.8 75.8 19.3C76.8 18.7 77.6 17.9 78.3 17.2C79.2 16.2 80.1 15.2 81 14.2L81.4 13.7C82.1 14.1 82.8 14.6 83.5 15.1C82.7 16.4 81.1 18.9 77.8 21.7ZM77.2 16.2C76.5 16.9 75.8 17.6 75 18.1C74.3 18.6 73.2 19.2 72.1 19.4C70.7 19.7 69.3 20.1 68 20.8C68.1 19.6 68.1 18.5 68.1 17.4C68.1 17.4 68.1 17.4 68.2 17.4C70.3 17.4 75.8 16.7 78.5 12.1C79.1 12.4 79.6 12.7 80.2 13C79.2 14.1 78.2 15.1 77.2 16.2ZM66.5 20.9C66.1 23.8 63.6 26.8 61.6 29.2L61.4 29.4C59.5 31.7 57.7 34.2 56.2 36.8C55 38.8 52.3 45.7 51.3 49.7C50.4 53.4 49.8 56.7 49.6 59.6C46.8 60.7 44.3 62.5 42.2 64.8C42.1 64.9 42 65 41.9 65.1C42.1 54.6 45 45.4 50.8 37.1C53.8 32.7 57.3 28.7 61.9 24.5C64.1 22.5 65.7 19.3 66.6 17.1C66.6 18.1 66.6 19.5 66.5 20.9ZM58.6 87.5C59.2 89 59.3 90.7 58.8 92.2C58.5 91.8 58.1 91.4 57.8 90.9C58.1 89.8 58.4 88.6 58.6 87.5ZM56.7 89.3C56.6 89.1 56.4 88.9 56.3 88.7C55.6 87.5 54.7 86.2 53.8 85.3C53.9 85 53.9 84.8 53.9 84.6C53.9 84.2 53.9 83.8 53.9 83.4C54 83.3 54.1 83.2 54.2 83C54.3 82.8 54.5 82.7 54.5 82.6C55.1 82.2 56.1 82.6 56.6 83.2C57.2 84.1 57.3 85.3 57.3 86.1C57.2 87 56.9 88.1 56.7 89.3ZM52.2 80.1L52 80C52 80 52.1 79.9 52.2 79.8C52.2 79.9 52.2 80 52.2 80.1ZM51.5 74C51.8 75.9 52 77.7 52.1 79.6C50.8 80.3 49.3 80.5 47.7 80.7C46.6 80.9 45.5 81 44.4 81.3L44.8 82.7C45.8 82.4 46.8 82.3 47.9 82.1C49.3 81.9 50.8 81.7 52.1 81.1C52.1 82.2 52.2 83.3 52.2 84.4C52.2 84.5 52.2 84.6 52.2 84.6C52.2 84.6 52 84.7 51.9 84.7C49.4 85.6 45.9 86.3 43 86.7C42.6 85.4 41.6 81.7 41.4 79.5C41.9 79.2 43.2 78.6 45.3 78.7C48.7 78.8 50.9 77.8 51 77.7L50.3 76.3C50.3 76.3 48.3 77.2 45.3 77.1C43.4 77 42.1 77.4 41.2 77.8C41.2 76.6 41.1 75.3 41.2 74.1C41.5 74.5 41.7 74.7 42 74.9C43.1 75.7 44.4 76.2 45.7 76.2C46 76.2 46.3 76.2 46.6 76.1C47.8 75.9 48.8 75.3 49.7 74.7L51.5 74ZM44.9 101.3C43.4 101.3 42 101 40.2 100.1C39.8 99.9 39.4 99.7 39.1 99.5C37.3 98.4 35.2 97.2 31.8 98.7C32.8 97.2 33.2 95.5 33.6 94C34.2 92 34.5 90.7 35.6 90.4C35.8 92 36 93.7 36.1 95.3C36.2 96 36.6 96.5 37.2 96.8C37.8 97.1 38.9 97.5 40.2 97.5C41 97.5 42 97.3 43.1 97C43.2 97.5 43.4 98 43.5 98.6C43.8 99.5 44.3 100.5 44.9 101.3ZM37.5 94C37.3 92.2 37.1 90.4 36.9 88.6C37.5 88.6 38.2 88.6 38.9 88.3C39.1 90.2 39.2 92.2 39 92.6C38.7 93.2 38.1 93.7 37.5 94ZM39.9 70.7C39.9 70.9 39.9 71 40 71.1C39.8 73.7 39.8 76.6 39.9 79.4C40 82 41.7 87.5 41.8 87.8L42.3 89.4C42.3 91.4 42.4 93.5 42.7 95.4C40.5 96.3 38.8 95.9 37.9 95.5C38.8 95 39.8 94.3 40.3 93.4C40.8 92.5 40.5 89.1 40.3 87.1L40.2 86L39.2 86.5C38.1 87 37.4 87.1 36.6 87C36.2 84.3 35.7 81.7 35.1 79L34.8 77.6C34.2 75 33.5 72.3 33.5 69.7C33.4 64.2 35.9 58.5 40.3 54.5C40.7 54.2 41.2 53.8 41.8 53.4C40.7 57.9 40.2 62.6 40.3 67.6C40 68.6 39.8 69.6 39.9 70.7ZM32 70.6C30.9 69.8 30.8 68.7 30.6 67.4C30.4 66.4 30.3 65.3 29.6 64.5C28 62.7 25.5 62.3 23.1 61.9C22.8 61.8 22.5 61.8 22.2 61.7C22.5 61.5 22.8 61.4 23.2 61.2C25.3 60.1 27.1 59.6 28.8 59.8C29.5 59.9 29.9 60.4 30.5 61.2C31.1 62 31.8 62.9 33 63.3C32.3 65.4 32 67.6 32 69.8C32 70.1 32 70.3 32 70.6ZM23 43C23.6 43.9 24.3 44.8 25.3 45.3C27 46.3 28.9 46.5 30.8 46.8C31 46.8 31.2 46.9 31.4 46.9C30.8 47.1 30.2 47.4 29.7 47.6C29.4 47.7 29.2 47.8 29 47.9C27.3 48.5 25.3 48 24 46.6C23.4 45.8 23 44.4 23 43ZM29.5 49.3C29.7 49.2 30 49.1 30.4 48.9C31.6 48.4 33.3 47.6 35.1 48C35.5 48.6 35.4 49.6 35.2 50.6C33.2 50.3 31.1 49.9 28.9 49.4C29.1 49.4 29.3 49.4 29.5 49.3ZM36.1 46.8C35.5 46.2 34.8 46 34.2 45.8C33.2 45.5 32.1 45.4 31 45.3C29.2 45.1 27.5 44.9 26.1 44C24.1 42.8 23.1 40.2 23.5 37.9C29.5 42.9 36.6 47 42.8 49.6C42.6 50.1 42.5 50.6 42.3 51.1C40.5 51.1 38.6 51 36.6 50.7C37 49.4 37.1 47.9 36.1 46.8ZM52.7 31.9C50.1 29.6 47.7 27.1 45.5 24.4C45.9 23.2 46.1 22 46.1 20.8V20.7C48.9 24.2 51.8 27.4 54.3 29.9C53.7 30.6 53.2 31.2 52.7 31.9ZM44.8 25.9C46.9 28.4 49.3 30.8 51.8 33C51 34 50.3 35.1 49.5 36.1C49 36.9 48.5 37.7 48 38.5L40.9 32.6L39.9 33.8L47.2 39.9C46.3 41.4 45.5 43 44.8 44.5C41.1 42.5 35 37.9 33 36.4C33.8 34.4 34.8 32.8 36.8 31.8C37.3 31.5 37.9 31.3 38.5 31.1C39.1 30.9 39.8 30.6 40.4 30.3C42.3 29.3 43.8 27.8 44.8 25.9ZM60.8 23.3C60.4 23.6 60.1 24 59.7 24.3C57.4 22.5 54 18.9 51.6 15.8L50.4 16.7C52.9 19.9 56.2 23.4 58.6 25.4C57.4 26.6 56.3 27.7 55.3 28.9C50.3 23.9 43.8 16 39.9 9.2C43.3 8.1 46.8 7.3 50.4 6.9C51.1 8.7 52.4 10.5 54.4 12.1C57.4 14.7 62.1 16.2 65 16.9C64 18.9 62.6 21.5 60.8 23.3ZM44.2 18.2C44.4 18.9 44.6 19.7 44.6 20.4C44.4 20.8 44.1 21.2 43.7 21.6C43 20.7 42.2 19.6 41.2 18.4C39.4 16.1 37.4 13.5 35.4 10.8C36.4 10.3 37.4 9.9 38.4 9.5C40.1 12.4 42.1 15.4 44.2 18.2ZM44.3 23.2C43.6 25.6 42 27.7 39.8 28.9C39.2 29.2 38.6 29.4 38 29.6C37.4 29.8 36.7 30.1 36.1 30.4C33.8 31.5 32.6 33.3 31.8 35.1C31.5 33.7 31.4 33 31.6 31.3C31.8 29.5 32.8 27.7 34.4 26.3C35.1 25.7 35.7 25.4 36.2 25.3C36.5 25.3 36.8 25.3 37.2 25.4C37.4 25.4 37.5 25.5 37.7 25.5C39.8 25.9 42.4 24.9 44.3 23.2ZM31.3 36.9C31.6 37.2 39.6 43.3 44.2 45.8C43.9 46.6 43.6 47.4 43.3 48.2C33.6 44 21.6 36.3 15.7 27C16.4 26.1 17 25.2 17.8 24.3C20.6 27.7 24.7 31.2 28.4 34.3C29.4 35.3 30.4 36.1 31.3 36.9ZM22.3 36.9C22 37.8 21.9 38.7 22 39.6C21.9 39.6 21.8 39.5 21.7 39.5C19.1 38.6 13.4 36.4 11.6 34C12.6 32.1 13.6 30.2 14.8 28.4C16.8 31.5 19.4 34.3 22.3 36.9ZM21.2 40.9C21.4 41 21.6 41.1 21.8 41.1C21.3 43.1 21.6 45.9 23 47.5C23.2 47.7 23.4 47.9 23.6 48.1C18.1 46.7 12.7 45 8.1 43.4C8.8 40.7 9.8 38 10.9 35.5C13.2 38 18.3 39.9 21.2 40.9ZM40.2 52.7C39.7 53.1 39.3 53.4 39.3 53.5C39.1 53.7 38.9 53.9 38.7 54.1C33.2 55.8 27.1 54.4 21.7 53.1C21 52.9 20.3 52.8 19.6 52.6C17.9 52.2 15.4 51.5 12.9 50.8C10.8 50.2 8.5 49.6 6.9 49.2C7.1 47.8 7.4 46.3 7.7 44.9C17.3 48.1 30.4 52.1 40.2 52.7ZM29.1 92.7L29.3 92.3C30.2 90.2 31.2 88.1 32.6 86.4C32.8 86.1 33.1 85.9 33.3 85.6C33.8 85.1 34.2 84.5 34.6 83.9C34.9 85.6 35.2 87.2 35.4 88.9C33.3 89.4 32.7 91.6 32.2 93.6C31.8 95 31.4 96.6 30.5 98C29.4 97.3 28.3 96.6 27.2 95.8C27.8 95.1 28.4 94.1 29.1 92.7ZM38.3 100.8C38.7 101 39.1 101.3 39.5 101.5C41.2 102.3 42.7 102.9 44.7 102.9C45.1 102.9 45.6 102.9 46 102.8C46.4 103.3 46.8 103.7 47.3 104.2L47.4 104.3C42.5 103.5 37.8 101.9 33.5 99.7C35.6 99.2 36.9 99.9 38.3 100.8ZM48.4 103.1C47.4 102 46.5 101 45.8 99.9C46.3 99.7 47.1 99.4 48 99.3C48.2 99.7 48.3 100 48.5 100.3C48.9 101 50 102.2 52.1 104.1C52.4 104.3 52.6 104.6 52.7 104.8C51.7 104.7 50.8 104.6 49.8 104.5C49.3 104.1 48.9 103.6 48.4 103.1ZM67.5 74.5C65.4 73.8 63 72.6 61.4 71.3C61.4 71.3 60.2 70.5 58.9 70.1C58.1 69.9 57.3 69.7 56.5 69.8C55.4 69.9 54.4 70.5 53.6 71L49 73.8C48.2 74.3 47.3 74.8 46.4 75C45.3 75.2 44 74.8 43 74.1C42.6 73.8 41.7 72.7 41.5 71.2V71.1C41.5 71 41.4 70.8 41.4 70.7C41.2 69 41.8 67.4 43.2 65.8C45.4 63.4 48.2 61.6 51.3 60.6C53.1 60 55 59.7 56.8 59.4L67.3 57.6C69.2 57.3 71.6 56.1 72 55.9C73.5 55.4 75.4 55.3 77.2 55.3C77.9 55.3 78.7 55.3 79.4 55.2H79.9C81.1 55.1 82.2 55 83 54.5C83.1 54.7 83.1 54.9 83.2 55.1C82.9 57.7 81.9 58.3 81 58.5C80.8 58.6 80.5 58.6 80.3 58.6C79.9 58.7 79.5 58.8 79.1 58.9C78.2 59.2 77.5 59.8 77.2 60.5C76.8 61.4 77 62.6 77.8 63.6C78.1 64 78.5 64.3 78.8 64.6C79.1 64.9 79.3 65.1 79.6 65.4C80 65.8 80.3 66.5 80.1 67H80.2C79.2 68.7 78.5 70.6 78.1 72.6C76.7 72 75.1 71.8 73.5 72C71.2 71.9 69 73 67.5 74.5ZM89.6 60.2C90.1 60 90.7 59.8 91.3 59.6C92.9 59.1 94.9 58.6 96.4 57C95.8 58.1 95.2 59.1 94.5 60.2C91.1 61.3 88 63.8 85.8 67.2C84 70.1 83 73.9 82.6 76.6C81.6 75 80.5 73.8 79.3 73C80.3 67.3 84.3 62.3 89.6 60.2ZM92.1 22.5C93.2 23.7 94.3 25 95.3 26.3C95.6 29.7 93.9 31.2 93.4 31.6C92.2 32.5 90.9 33 90.2 33.3L89.8 33.5C87.2 34.6 87.7 36.7 88 38V38.2C88.3 39.6 91.1 41.7 91.4 41.9C92 42.3 93.1 43 94.1 43.6C95.1 44.2 96.1 44.8 96.5 45.1C98.5 46.6 98.8 47.9 99.1 49.2C99.2 49.6 99.3 49.9 99.4 50.3H99.5C99.1 51.6 98.6 52.9 98 54.1C97.1 50.4 94.8 47.2 91.1 44.8C90.2 44.2 89.1 43.6 88.2 43.1C86.9 42.4 85.7 41.8 84.6 40.9C82.9 39.5 81.4 37.2 82.1 35C82.3 34.1 82.7 33.4 83.2 32.7C83.9 31.7 84.6 31 85 30.6C85.8 30 86.6 29.5 87.5 29C87.9 28.7 88.4 28.5 88.8 28.2C89.7 27.6 90.6 26.9 91.2 26C91.6 25.3 91.9 23.9 92.1 22.5ZM100.1 47.4C99.7 46.4 99 45.2 97.4 44C97 43.7 96 43 94.9 42.4C93.9 41.8 92.8 41.1 92.3 40.7C90.6 39.5 89.6 38.3 89.5 37.9V37.7C89.2 36.2 89 35.5 90.4 34.9L90.8 34.8C91.7 34.5 93.1 33.9 94.4 32.9C95.7 31.9 96.6 30.3 96.8 28.4C98 30.1 99 32 100 33.8C100.7 38.2 100.6 43.7 100.1 47.4ZM92.8 57.6H92.7C92.7 57.7 92.7 57.6 92.8 57.6ZM94 57.1C94.1 54.1 93.8 51.2 93 48.3C94.7 50.1 95.9 52.1 96.5 54.3C95.9 55.7 95 56.5 94 57.1ZM90.2 46C90.4 46.1 90.6 46.3 90.8 46.5C92.1 50.1 92.7 54 92.4 57.8C91.9 58 91.4 58.1 90.9 58.3C90.8 58.3 90.8 58.3 90.7 58.3C90.9 53.7 90.1 49.1 88.2 44.9C89 45.3 89.6 45.6 90.2 46ZM90.3 81.5C90.2 81.1 90 80.7 89.9 80.3C88.9 76.9 89.6 73.3 91.6 70.8C91.8 71 91.9 71.2 92.1 71.4C90.1 74.4 90.7 79.2 91 80.6C90.8 81 90.6 81.3 90.3 81.5ZM96.1 64.8C97 64.3 97.9 63.8 98.9 63.4C99.6 63.1 100.3 63 100.9 62.8C102.2 62.5 103.5 62.3 104.7 60.9C104.4 63.7 103.9 66.4 103.1 69.1C101 67.7 98.6 67 96.2 67.2C95.1 67.3 94.1 67.6 93.2 68C93.9 66.7 94.9 65.6 96.1 64.8ZM104.7 50.2C103.9 50.5 102.9 51.4 102.4 53.4C102.3 53.6 102.3 53.9 102.2 54.2C101.9 55.7 101.5 58.1 99.5 58.8C98.6 59.1 97.7 59.3 96.8 59.6C98.6 56.5 100.4 53.4 101.3 49.8C101.9 47.2 102.3 42.8 102 38.5C103.3 42.2 104.2 46.1 104.7 50.2ZM90.6 21C90.7 22 90.3 24.5 89.9 25.1C89.4 25.8 88.6 26.4 87.9 26.9C87.5 27.2 87.1 27.4 86.6 27.7C85.7 28.2 84.9 28.8 84 29.4C83.4 29.8 82.7 30.6 81.9 31.8C81.3 32.6 80.8 33.6 80.5 34.6C79.6 37.4 81.4 40.4 83.5 42.1C84.3 42.7 85.1 43.2 86 43.7C88.5 48.3 89.7 53.6 89.3 58.8C89.2 58.8 89.2 58.8 89.1 58.9C88 59.3 87 59.9 86 60.5C85.7 58.8 85.2 56.8 84.6 54.4C84.1 52.5 83.2 50 81.8 47.8C80.7 46.2 79.4 44.8 78.1 43.5C77.1 42.5 76 41.4 75.2 40.3C73.5 38.1 72.1 34.6 73.6 31.8C73.6 31.7 76.8 25.4 83.6 24.4C86.8 23.9 88.7 22.1 89 19.4C89.5 19.9 90.1 20.4 90.6 21ZM70.9 8.9C69.5 9.2 67.8 9.1 66.1 8.6C65.1 8.3 63.6 7.6 62.2 7C65.3 7.3 68.2 8 70.9 8.9ZM58.5 6.6C60.2 7.8 63.7 9.3 65.7 10C66.9 10.4 68.1 10.6 69.3 10.6C70.3 10.6 71.2 10.5 72.1 10.2C72.5 10.1 72.8 9.9 73.2 9.8C74.5 10.3 75.8 10.8 77 11.4C74.5 15.6 69.1 15.9 67.9 15.9C67.8 15.1 67.6 14.5 67.4 14L66.6 12L66 14C66 14 65.8 14.6 65.5 15.5C63.2 14.9 58.3 13.5 55.4 11C53.8 9.6 52.7 8.2 52 6.7C53.2 6.6 54.5 6.5 55.8 6.5C56.7 6.5 57.6 6.5 58.5 6.6ZM34.1 11.5C36.2 14.3 38.3 17 40.1 19.4C41 20.6 41.9 21.7 42.6 22.6C41.2 23.6 39.4 24.3 38 24.1C37.9 24.1 37.7 24.1 37.6 24C37.2 23.9 36.8 23.8 36.3 23.9C35.1 24 34.2 24.7 33.6 25.2C31.7 26.8 30.6 29 30.3 31.1C30.2 32.2 30.1 33 30.2 33.8C30 33.6 29.7 33.4 29.5 33.2C25.8 30.1 21.6 26.5 18.9 23.2C23 18.4 28.2 14.4 34.1 11.5ZM10.3 74.7C11.6 74.2 13.3 73.9 14.4 73.9C16 74 17.6 74.1 18.7 75.1C19.6 75.9 19.9 77.2 20.1 78.1C20.4 80.9 19.1 83.9 16.8 85.6C14.1 82.4 12 78.7 10.3 74.7ZM17.6 86.9C20.3 84.9 21.9 81.4 21.5 78C21.4 76.8 20.9 75.2 19.7 74C18.3 72.7 16.4 72.5 14.5 72.4C13.2 72.3 11.2 72.7 9.8 73.3C8.4 69.6 7.4 65.7 6.9 61.6C8.1 62.7 9.6 63.5 11.4 63.8C11.4 65.1 11.8 66.3 12.6 67.2C14.1 68.8 16.5 69.4 18.2 69.4C18.7 69.4 19.2 69.4 19.7 69.3C21.2 69.2 22.5 69.1 23.7 69.6C25.7 70.4 27.2 72.7 27.2 75.3C27.3 78 26.1 80.5 25 82.5C24.7 83.1 24.3 83.5 23.9 84.1C22.8 85.5 21.6 87.1 21.1 90.8C19.9 89.6 18.7 88.3 17.6 86.9ZM54.4 105C54.2 104.4 53.7 103.8 53 103.1C50.7 101 49.9 100.1 49.7 99.7C49.7 99.6 49.6 99.5 49.6 99.5C49.9 99.6 50.2 99.7 50.5 99.8C51.6 100.4 52.9 101.1 54 101.6C55.1 102.2 58.5 102.6 61.2 102.6C62.2 102.6 63.1 102.5 63.8 102.4C67.6 101.6 71.6 99.5 74.6 96.8C75.9 95.7 77.1 94.2 78.4 92.4C78.4 92.8 78.3 93.2 78.3 93.6C78 95.1 76.9 99 75.7 100.8C69.6 103.5 62.9 105 55.9 105C55.3 105 54.9 105 54.4 105ZM79.7 93.9C80.1 91.1 79.9 88.5 79.1 86.3C78.1 83.7 76.1 81.6 73.8 80.7C72.7 80.3 71.6 80.2 70.5 80.2C70.6 79 71.2 77.7 72.1 76.8C72.7 76.3 73.6 75.7 74.8 75.9L75 74.4C73.6 74.2 72.2 74.6 71 75.7C69.7 76.9 68.9 78.7 68.9 80.5C68.1 80.7 67.3 81.1 66.6 81.5C66.5 81.5 66.5 81.6 66.4 81.6C66.2 79.8 66.6 78.2 67.4 76.9C68.7 74.9 71 73.5 73.5 73.2C75.2 73 76.9 73.3 78.2 74.1C79.7 75 80.9 76.5 82.1 78.8C84.1 82.7 84.9 90.1 84.7 95.4C82.5 97 80.1 98.5 77.6 99.8C78.9 97.2 79.7 94.1 79.7 93.9ZM86.4 94.2C86.4 91.9 86.3 89.4 85.9 86.9L86 87C89 84.8 92.1 82.4 93.5 79.5C95.2 76.1 94.8 72.2 92.7 69.8C93.7 69.1 94.9 68.7 96.3 68.6C98.5 68.4 100.8 69.1 102.6 70.6C99.7 80 94 88.2 86.4 94.2Z" fill="white"/>
</g>
<circle cx="56" cy="56" r="55.25" stroke="white" stroke-width="1.5"/>
<defs>
<clipPath id="clip0">
<rect width="101.5" height="101.5" fill="white" transform="translate(5 5)"/>
</clipPath>
</defs>
</svg>
