<svg width="112" height="112" viewBox="0 0 112 112" fill="none" xmlns="http://www.w3.org/2000/svg">
<circle cx="56" cy="56" r="55.25" stroke="white" stroke-width="1.5"/>
<g clip-path="url(#clip0)">
<path d="M106.93 56.46C106.937 43.1756 101.689 30.4277 92.3295 21V20.69H92.0295C84.3864 13.0752 74.5006 8.11516 63.8272 6.53998C53.1537 4.9648 42.2566 6.85768 32.7396 11.94H32.6495V12.01C21.391 18.0639 12.8497 28.1652 8.75104 40.2733C4.6524 52.3814 5.30191 65.5938 10.5684 77.2415C15.8349 88.8892 25.3257 98.104 37.1238 103.024C48.9218 107.945 62.1477 108.204 74.1295 103.75C75.5019 103.423 76.81 102.869 77.9995 102.11C86.6502 98.0222 93.962 91.5614 99.0836 83.4797C104.205 75.3981 106.926 66.0279 106.93 56.46V56.46ZM73.6495 102.32C71.3508 102.855 68.9417 102.646 66.7691 101.724C64.5965 100.802 62.7724 99.2146 61.5595 97.19L65.1595 95.36C66.0588 96.7381 67.3961 97.773 68.9557 98.2977C70.5153 98.8224 72.2063 98.8063 73.7556 98.252C75.305 97.6977 76.6223 96.6376 77.4952 95.2426C78.368 93.8477 78.7454 92.1994 78.5664 90.5636C78.3874 88.9278 77.6625 87.4001 76.5087 86.2269C75.3548 85.0538 73.8393 84.3036 72.2068 84.0975C70.5742 83.8914 68.9199 84.2413 67.5106 85.0909C66.1014 85.9405 65.0195 87.2401 64.4395 88.78L60.5195 87.78C61.0901 86.0791 62.0595 84.5395 63.3467 83.2898C64.634 82.0401 66.2017 81.1167 67.9188 80.5968C69.6358 80.0769 71.4524 79.9756 73.2167 80.3013C74.9809 80.6271 76.6416 81.3703 78.0598 82.4691C79.4781 83.5678 80.6127 84.9901 81.3688 86.6171C82.125 88.244 82.4807 90.0283 82.4063 91.8208C82.3319 93.6133 81.8295 95.362 80.941 96.9207C80.0526 98.4793 78.804 99.8026 77.2996 100.78C76.0696 101.34 74.8495 101.82 73.6495 102.32ZM42.1395 103.32C41.4595 103.11 40.7895 102.88 40.1395 102.65C41.2425 101.977 42.2371 101.141 43.0895 100.17L43.5895 99.6L38.2595 95.03L37.7695 95.59C37.0741 96.3828 36.177 96.9724 35.1734 97.2964C34.1698 97.6203 33.0972 97.6665 32.0695 97.43C31.4395 97.11 28.2395 95.23 30.3295 90.74C32.4195 86.25 37.0395 87.86 37.9995 88.24C38.7552 89.2222 39.1758 90.421 39.1995 91.66V92.4L46.1995 92.31V91.56C46.1503 88.7456 45.1712 86.0265 43.4147 83.8269C41.6583 81.6273 39.2234 80.0707 36.4896 79.4C35.9693 79.2761 35.4415 79.1859 34.9095 79.13C34.9095 77.38 34.3695 72.83 30.1995 71.49C25.4395 69.95 24.7795 69.49 23.9095 65.35L22.9095 65.56C23.5795 68.74 24.2895 70.05 26.3295 71.09C26.4595 71.83 26.9595 73.86 28.6995 74.61L29.0996 74.78C30.7196 75.47 31.2995 75.78 31.1595 79.25C29.6248 79.5266 28.1537 80.0825 26.8196 80.89C26.2284 81.251 25.6697 81.6626 25.1495 82.12C25.0945 81.8396 25.0037 81.5674 24.8796 81.31L17.3295 66.82C18.0706 66.3865 18.7178 65.8094 19.2329 65.1226C19.7481 64.4357 20.1209 63.6529 20.3295 62.82C20.5597 61.8603 20.5597 60.8598 20.3295 59.9L26.8895 58.35C27.1971 58.2678 27.4791 58.1096 27.7095 57.89C28.0738 58.3151 28.5643 58.6129 29.1096 58.74C29.3182 58.7961 29.5335 58.823 29.7495 58.82C30.4281 58.8176 31.0812 58.5607 31.5795 58.1L30.8095 61.25L35.7296 62.46C36.2562 66.7628 38.3365 70.725 41.5795 73.6015C44.8225 76.478 49.0047 78.0707 53.3395 78.08H59.6495C64.0022 78.0751 68.2017 76.4727 71.4514 73.577C74.7011 70.6812 76.775 66.6934 77.2795 62.37H80.9796V59.14C81.228 59.5087 81.563 59.8108 81.9552 60.02C82.3474 60.2292 82.785 60.3391 83.2296 60.34C83.7856 60.3382 84.3273 60.1635 84.7795 59.84C84.9508 60.1065 85.1886 60.3237 85.4695 60.47L91.4695 63.53C90.8657 64.744 90.6623 66.1182 90.8887 67.4551C91.1151 68.7919 91.7596 70.0226 92.7296 70.97L82.0995 83.05C82.3455 81.6969 82.171 80.3009 81.5995 79.05C81.4995 78.78 81.3795 78.48 81.2695 78.14C80.6695 76.39 81.1295 73.5 81.2695 72.82C82.28 72.1396 83.3719 71.5886 84.5195 71.18C89.5995 69.1 88.7096 65.89 88.6696 65.76L87.6696 66.04C87.6696 66.14 88.2995 68.53 84.0995 70.25C79.4395 72.16 78.0996 73.51 77.7296 80.43C76.037 79.4011 74.1275 78.7821 72.1532 78.6222C70.1789 78.4623 68.1947 78.7661 66.3586 79.5092C64.5226 80.2524 62.8857 81.4143 61.5784 82.9024C60.2712 84.3905 59.3299 86.1635 58.8295 88.08L58.6295 88.81L65.4395 90.57L65.6295 89.84C65.9656 88.6553 66.6651 87.6059 67.6295 86.84C68.6295 86.7 73.5396 86.29 74.4896 91.09C75.4396 95.89 71.8995 97.01 71.2195 97.17C70.1642 97.1601 69.1316 96.8625 68.2329 96.3092C67.3342 95.7559 66.6035 94.9679 66.1195 94.03L65.7795 93.37L59.5095 96.55L59.8596 97.22C61.0277 99.4785 62.8459 101.335 65.0795 102.55C60.6095 103.67 58.9095 102.69 56.9695 101.55C55.4987 100.585 53.838 99.9476 52.0996 99.68C46.9996 98.96 43.3096 102.07 42.0996 103.27L42.1395 103.32ZM19.8196 58.55C19.6696 58.27 19.4795 57.93 19.2695 57.6L26.4195 55.91C26.4793 55.8974 26.5412 55.8989 26.6003 55.9145C26.6593 55.9301 26.7139 55.9594 26.7595 56C26.8071 56.0397 26.844 56.0908 26.8667 56.1484C26.8894 56.2061 26.8972 56.2685 26.8895 56.33V56.62C26.8833 56.7 26.8519 56.7761 26.7998 56.8372C26.7477 56.8982 26.6776 56.9413 26.5996 56.96L19.8196 58.55ZM18.6495 59.62C19.0443 60.6836 19.061 61.8506 18.6968 62.925C18.3326 63.9994 17.6097 64.9158 16.6495 65.52L16.4595 65.16C16.2809 64.7525 15.9715 64.4162 15.5803 64.2043C15.1891 63.9924 14.7384 63.917 14.2995 63.99L14.0295 64.06C13.7794 64.1312 13.5486 64.2581 13.3546 64.4313C13.1607 64.6045 13.0085 64.8195 12.9095 65.06C12.7804 65.3774 12.7158 65.7174 12.7195 66.06C12.0162 65.8638 11.365 65.5141 10.813 65.0361C10.261 64.5581 9.82176 63.9637 9.52701 63.2957C9.23226 62.6276 9.08928 61.9024 9.10837 61.1724C9.12746 60.4425 9.30815 59.7258 9.63742 59.074C9.9667 58.4223 10.4364 57.8516 11.0126 57.4031C11.5889 56.9547 12.2574 56.6395 12.9701 56.4804C13.6828 56.3212 14.4219 56.322 15.1342 56.4828C15.8465 56.6435 16.5143 56.9602 17.0895 57.41C17.1974 57.4947 17.3009 57.5847 17.3995 57.68L17.5895 57.85C18.0125 58.3955 18.3683 58.9897 18.6495 59.62V59.62ZM23.6495 83.1C23.6495 83.19 23.5595 83.25 23.5095 83.26L23.2395 83.33C23.1795 83.33 22.9696 83.25 22.7896 82.92L14.3695 66.82C14.2729 66.648 14.214 66.4574 14.1968 66.2608C14.1795 66.0642 14.2043 65.8662 14.2695 65.68C14.2695 65.59 14.3595 65.52 14.3995 65.51L14.6795 65.44C14.7495 65.44 14.9495 65.55 15.1095 65.86L23.5396 81.96C23.6355 82.1322 23.6947 82.3223 23.7137 82.5185C23.7326 82.7147 23.7108 82.9127 23.6495 83.1V83.1ZM12.5095 67.58C12.7142 67.6272 12.9211 67.6639 13.1296 67.69L21.4595 83.61C21.5916 83.8801 21.7764 84.1211 22.0031 84.3187C22.2298 84.5162 22.4938 84.6663 22.7795 84.76C21.9835 85.9681 21.4017 87.3043 21.0595 88.71C20.9555 89.1251 20.8754 89.5458 20.8196 89.97C13.9704 82.7165 9.50996 73.5372 8.03955 63.67C8.41615 64.6326 9.01892 65.4905 9.79694 66.171C10.575 66.8516 11.5053 67.3349 12.5095 67.58V67.58ZM22.5095 89.07C23.1441 86.4754 24.6812 84.1912 26.8458 82.6262C29.0103 81.0611 31.6611 80.3172 34.3239 80.5277C36.9867 80.7382 39.4877 81.8892 41.3795 83.7749C43.2713 85.6606 44.4305 88.1579 44.6495 90.82H40.6495C40.5149 89.7291 40.136 88.6826 39.541 87.7584C38.9459 86.8341 38.1502 86.056 37.2128 85.4819C36.2755 84.9077 35.2207 84.5523 34.1271 84.4422C33.0334 84.3321 31.9291 84.47 30.8961 84.8457C29.8631 85.2214 28.9281 85.8252 28.1607 86.6122C27.3933 87.3993 26.8134 88.3491 26.4639 89.3913C26.1144 90.4335 26.0045 91.541 26.1422 92.6315C26.28 93.7221 26.6619 94.7675 27.2595 95.69C25.4979 94.3674 23.8274 92.9274 22.2595 91.38C22.2637 90.6035 22.3475 89.8294 22.5095 89.07V89.07ZM32.1696 79.07C32.2796 75.23 31.4896 74.67 29.4896 73.82L29.0996 73.66C28.6988 73.4451 28.3482 73.1477 28.0707 72.7875C27.7932 72.4272 27.5951 72.0123 27.4895 71.57C28.1595 71.83 28.9495 72.1 29.8795 72.4C33.4195 73.54 33.8795 77.4 33.8795 79.01C33.3091 78.9823 32.7374 78.999 32.1696 79.06V79.07ZM28.9196 90.07C28.2481 91.39 27.9836 92.8796 28.1595 94.35C27.65 93.359 27.4368 92.2421 27.5454 91.1331C27.6539 90.024 28.0796 88.9698 28.7716 88.0963C29.4636 87.2229 30.3926 86.5672 31.4474 86.2079C32.5022 85.8485 33.6382 85.8007 34.7195 86.07L34.9296 86.14C33.6511 86.1195 32.3956 86.4818 31.3246 87.1803C30.2537 87.8788 29.4161 88.8817 28.9196 90.06V90.07ZM38.2495 101.91C36.1398 101.052 34.0916 100.05 32.1195 98.91C33.2272 99.1044 34.3649 99.0385 35.4427 98.7174C36.5205 98.3963 37.5088 97.8289 38.3295 97.06L41.3995 99.68C40.4789 100.588 39.4145 101.338 38.2495 101.9V101.91ZM28.5496 55.82C28.5867 55.6647 28.6545 55.5183 28.7489 55.3895C28.8433 55.2607 28.9626 55.1521 29.0996 55.07C29.2883 54.9517 29.5068 54.8893 29.7296 54.89C29.8257 54.8759 29.9234 54.8759 30.0195 54.89C30.1751 54.9266 30.3216 54.9942 30.4505 55.0887C30.5794 55.1832 30.6879 55.3027 30.7695 55.44C30.8537 55.5741 30.9096 55.724 30.9337 55.8805C30.9578 56.037 30.9496 56.1968 30.9095 56.35C30.8313 56.6628 30.6334 56.9322 30.3585 57.1005C30.0836 57.2688 29.7536 57.3225 29.4395 57.25C29.1358 57.1717 28.8739 56.9795 28.7082 56.7133C28.5425 56.447 28.4857 56.1271 28.5496 55.82ZM57.2195 37.73V33.73C59.0776 33.7533 60.9126 34.1444 62.6187 34.8807C64.3247 35.617 65.8681 36.684 67.1595 38.02C68.32 39.2814 69.0516 40.8775 69.2495 42.58H67.5295C67.1172 40.5626 66.0651 38.7319 64.5295 37.36L63.5295 38.45C64.7383 39.5511 65.5884 40.99 65.9695 42.58H43.6995C44.1895 37.8 49.3295 34 55.6995 33.72V37.72L57.2195 37.73ZM42.6495 44.1H70.2795C71.7604 44.1 73.1807 44.6876 74.2288 45.7338C75.2768 46.7799 75.8669 48.1992 75.8695 49.68V60.35C75.8642 64.653 74.1546 68.7786 71.1148 71.8241C68.075 74.8696 63.9525 76.5868 59.6495 76.6H53.3596C49.0514 76.5947 44.9212 74.881 41.8749 71.8347C38.8286 68.7883 37.1149 64.6582 37.1096 60.35V56.93L38.0095 53.25L37.1096 53.03V49.68C37.1095 48.207 37.6919 46.7937 38.7297 45.7484C39.7676 44.7031 41.1766 44.1106 42.6495 44.1V44.1ZM77.3695 60.35V54.35H79.4395V60.85H77.3695V60.35ZM35.5695 56.75L34.5695 60.66L32.5695 60.17L34.1096 53.86L35.5396 54.21L35.5695 56.75ZM81.9695 57.64C81.9695 57.3987 82.0411 57.1629 82.1752 56.9622C82.3092 56.7616 82.4997 56.6052 82.7227 56.5129C82.9456 56.4205 83.1909 56.3964 83.4276 56.4434C83.6642 56.4905 83.8816 56.6067 84.0522 56.7773C84.2228 56.948 84.339 57.1653 84.3861 57.402C84.4332 57.6386 84.409 57.884 84.3167 58.1069C84.2243 58.3298 84.0679 58.5204 83.8673 58.6544C83.6667 58.7885 83.4308 58.86 83.1895 58.86C82.866 58.86 82.5556 58.7315 82.3268 58.5027C82.098 58.2739 81.9695 57.9636 81.9695 57.64ZM97.4196 70.32C97.3817 70.0622 97.2854 69.8165 97.1381 69.6016C96.9908 69.3867 96.7963 69.2083 96.5695 69.08L96.3195 68.94C95.9094 68.7645 95.4524 68.7312 95.0211 68.8454C94.5899 68.9596 94.2091 69.2146 93.9395 69.57L93.6796 69.87C92.9598 69.1415 92.4852 68.2066 92.3221 67.1956C92.159 66.1846 92.3154 65.1479 92.7695 64.23L97.0895 66.44C97.358 66.5746 97.6542 66.6447 97.9545 66.6447C98.2549 66.6447 98.551 66.5746 98.8195 66.44C99.0886 66.3018 99.3202 66.1005 99.4944 65.8532C99.6686 65.6058 99.7801 65.3199 99.8195 65.02V64.74C99.8785 64.3525 99.8136 63.9563 99.634 63.6079C99.4544 63.2595 99.1693 62.9768 98.8195 62.8L96.3795 61.55C96.6471 61.5031 96.9179 61.4764 97.1895 61.47C98.4634 61.5029 99.6753 62.0267 100.572 62.932C101.469 63.8374 101.981 65.0542 102.002 66.3283C102.022 67.6024 101.55 68.8352 100.683 69.7692C99.8159 70.7031 98.6217 71.2659 97.3495 71.34C97.4337 71.007 97.4575 70.6615 97.4196 70.32V70.32ZM80.2795 78.5C80.3995 78.85 80.5195 79.15 80.6295 79.44C81.1779 80.6532 81.3114 82.0133 81.0095 83.31C80.3352 82.4823 79.5591 81.7432 78.6995 81.11C78.8295 77.51 79.1795 75.47 80.0295 74.11C79.8166 75.5752 79.9016 77.0684 80.2795 78.5V78.5ZM83.0396 85.61L82.7896 85.48C82.7383 85.4251 82.7066 85.3548 82.6995 85.28C82.6818 85.0849 82.7046 84.8882 82.7665 84.7023C82.8285 84.5165 82.9282 84.3455 83.0595 84.2L95.0595 70.56C95.1165 70.4784 95.1892 70.4089 95.2734 70.3557C95.3575 70.3025 95.4514 70.2666 95.5496 70.25L95.7996 70.39C95.7996 70.39 95.8695 70.48 95.8895 70.58C95.9073 70.7751 95.8845 70.9718 95.8225 71.1577C95.7606 71.3435 95.6608 71.5146 95.5295 71.66L83.5295 85.3C83.3295 85.59 83.0896 85.64 83.0396 85.61V85.61ZM98.1595 64.12C98.2308 64.1577 98.2889 64.2162 98.3264 64.2875C98.3639 64.3589 98.3789 64.44 98.3695 64.52V64.81C98.3602 64.8708 98.3367 64.9286 98.3009 64.9785C98.2651 65.0285 98.2179 65.0693 98.1633 65.0975C98.1087 65.1258 98.0482 65.1407 97.9868 65.1412C97.9253 65.1416 97.8645 65.1275 97.8095 65.1L86.1495 59.16C86.0792 59.1219 86.0223 59.0631 85.9865 58.9915C85.9507 58.92 85.9378 58.8392 85.9495 58.76V58.47C85.9561 58.4089 85.9779 58.3503 86.0128 58.2997C86.0477 58.2491 86.0947 58.2079 86.1495 58.18C86.2054 58.1519 86.267 58.1372 86.3295 58.1372C86.392 58.1372 86.4537 58.1519 86.5095 58.18L98.1595 64.12ZM75.9196 90.82C75.7236 89.5555 75.1513 88.3793 74.2773 87.4446C73.4033 86.51 72.2681 85.8602 71.0195 85.58H71.2396C72.7823 85.5827 74.2611 86.1966 75.352 87.2875C76.4429 88.3784 77.0569 89.8573 77.0595 91.4C77.0597 92.7886 76.5591 94.1307 75.6495 95.18C76.1744 93.7865 76.2685 92.2676 75.9196 90.82V90.82ZM82.7595 96.58C83.1931 96.7519 83.6533 96.8467 84.1195 96.86C83.3495 97.39 82.5695 97.86 81.7695 98.38C82.151 97.8028 82.4822 97.1939 82.7595 96.56V96.58ZM89.8895 92.22C90.3895 90.1 91.3095 89.29 93.7095 88.22C92.5108 89.6163 91.2355 90.945 89.8895 92.2V92.22ZM101.98 38.44C102.706 40.2606 103.321 42.1242 103.82 44.02C103.805 45.1564 103.626 46.2846 103.29 47.37C102.757 48.3829 102.117 49.3351 101.38 50.21C101.144 50.5016 100.923 50.8053 100.72 51.12C100.26 51.8171 99.9568 52.605 99.8295 53.43C99.9328 54.8187 100.5 56.1324 101.44 57.16C101.04 56.87 100.67 56.62 100.31 56.37C98.8095 55.37 97.9096 54.74 97.9896 53.17C97.9839 52.3225 98.2859 51.5017 98.8395 50.86C100.006 49.2014 100.879 47.3545 101.42 45.4C102.083 43.1364 102.274 40.7604 101.98 38.42V38.44ZM105.11 62.02C104.929 60.6412 104.376 59.3376 103.51 58.25L103.31 57.97C103.13 57.71 102.91 57.43 102.67 57.13C101.84 56.07 100.8 54.76 100.83 53.46C100.953 52.8056 101.208 52.1831 101.58 51.63C101.66 51.49 101.89 51.2 102.18 50.82C102.991 49.8609 103.683 48.8064 104.24 47.68C104.326 47.4 104.406 47.12 104.48 46.84C105.111 50.0145 105.429 53.2433 105.43 56.48C105.428 58.3246 105.321 60.1676 105.11 62V62.02ZM83.9196 33.25H84.4095C84.1722 33.7248 83.8065 34.1236 83.354 34.4011C82.9015 34.6786 82.3803 34.8237 81.8495 34.82H74.9495C74.5617 34.843 74.1733 34.7865 73.8082 34.6539C73.443 34.5214 73.1088 34.3155 72.8261 34.0491C72.5434 33.7826 72.3181 33.4612 72.1642 33.1046C72.0102 32.7479 71.9308 32.3635 71.9308 31.975C71.9308 31.5866 72.0102 31.2021 72.1642 30.8455C72.3181 30.4888 72.5434 30.1674 72.8261 29.9009C73.1088 29.6345 73.443 29.4287 73.8082 29.2961C74.1733 29.1635 74.5617 29.107 74.9495 29.13H78.0595C78.5019 30.3293 79.3003 31.3647 80.3477 32.0975C81.395 32.8303 82.6413 33.2254 83.9196 33.23V33.25ZM83.9196 31.75C82.6545 31.75 81.4412 31.2475 80.5466 30.3529C79.6521 29.4584 79.1495 28.2451 79.1495 26.98C79.1495 25.7149 79.6521 24.5017 80.5466 23.6071C81.4412 22.7126 82.6545 22.21 83.9196 22.21H91.3995C93.8307 24.6918 95.9927 27.4236 97.8495 30.36C96.9613 31.2491 95.7563 31.7491 94.4995 31.75H83.9196ZM56.4695 7.52002C68.8708 7.51623 80.8088 12.2321 89.8596 20.71H83.9196C82.2575 20.7127 80.6642 21.3741 79.4889 22.5494C78.3136 23.7247 77.6522 25.3179 77.6495 26.98C77.6495 27.22 77.6495 27.45 77.6495 27.68H74.9495C74.3614 27.6518 73.7737 27.7432 73.2219 27.9489C72.6702 28.1545 72.166 28.47 71.7397 28.8762C71.3135 29.2825 70.9742 29.771 70.7424 30.3123C70.5105 30.8535 70.3911 31.4362 70.3911 32.025C70.3911 32.6138 70.5105 33.1965 70.7424 33.7377C70.9742 34.279 71.3135 34.7675 71.7397 35.1738C72.166 35.58 72.6702 35.8955 73.2219 36.1011C73.7737 36.3068 74.3614 36.3982 74.9495 36.37H81.8495C82.7861 36.3657 83.6963 36.06 84.4456 35.498C85.1948 34.9361 85.7432 34.1479 86.0095 33.25H94.4995C96.0289 33.2454 97.5043 32.6837 98.6495 31.67C99.2229 32.6167 99.7529 33.5867 100.24 34.58C100.83 36.82 101.7 41.29 100.47 45.1C99.957 46.9579 99.1282 48.7135 98.0195 50.29C97.3656 51.0874 97.0117 52.0888 97.0195 53.12C96.9095 55.25 98.2395 56.12 99.7795 57.2C101.46 58.2337 102.894 59.623 103.98 61.27C104.35 62.64 104.45 64.73 103.98 68.41C102.312 75.0147 99.28 81.1972 95.0795 86.56C90.6395 88.38 89.3095 89.17 88.6895 93.32C87.8095 94.09 86.9096 94.83 85.9796 95.54C85.0852 95.9379 84.0721 95.9773 83.1495 95.65C84.143 92.8969 84.143 89.8831 83.1495 87.13C83.4499 87.1078 83.7427 87.0256 84.0107 86.8882C84.2786 86.7508 84.5163 86.561 84.7095 86.33L96.5695 72.82C96.7795 72.82 96.9895 72.82 97.2095 72.82C98.8749 72.7544 100.45 72.0467 101.605 70.8452C102.76 69.6437 103.406 68.0417 103.406 66.375C103.406 64.7083 102.76 63.1063 101.605 61.9049C100.45 60.7034 98.8749 59.9956 97.2095 59.93C96.2953 59.9258 95.3911 60.1203 94.5595 60.5H94.4796L87.1895 56.82C86.9675 56.7052 86.7243 56.6371 86.4749 56.6199C86.2255 56.6027 85.9753 56.6368 85.7396 56.72C85.5741 56.2461 85.2802 55.8274 84.8907 55.5106C84.5012 55.1939 84.0314 54.9916 83.5336 54.9263C83.0359 54.8609 82.5298 54.9351 82.0717 55.1406C81.6137 55.3461 81.2217 55.6748 80.9395 56.09V52.86H77.3695V49.65C77.3684 47.8544 76.6851 46.1263 75.4579 44.8155C74.2307 43.5047 72.5512 42.7092 70.7595 42.59C70.5608 40.5101 69.6903 38.5513 68.2795 37.01C66.7542 35.4291 64.9164 34.1831 62.8831 33.3516C60.8497 32.52 58.6655 32.121 56.4695 32.18C48.8895 32.18 42.6795 36.79 42.1895 42.59C40.3969 42.7091 38.7164 43.5042 37.4876 44.8148C36.2587 46.1253 35.5732 47.8535 35.5695 49.65V52.65L33.0396 52.04L32.2795 55.18C32.2191 55.0159 32.1421 54.8584 32.0496 54.71C31.8649 54.4049 31.6217 54.1391 31.334 53.9282C31.0464 53.7172 30.72 53.5651 30.3735 53.4805C30.0269 53.396 29.6671 53.3807 29.3146 53.4355C28.9622 53.4903 28.624 53.6142 28.3195 53.8C27.9723 54.0104 27.6781 54.2978 27.4595 54.64C27.0336 54.3738 26.5206 54.2841 26.0295 54.39L18.0295 56.28L17.9695 56.22C17.1174 55.5652 16.1152 55.1336 15.054 54.9645C13.9927 54.7955 12.906 54.8943 11.8926 55.252C10.8792 55.6096 9.97124 56.2148 9.25119 57.0126C8.53115 57.8103 8.02183 58.7754 7.76953 59.82C7.76953 59.99 7.69953 60.17 7.66953 60.34C7.60953 59.57 7.56955 58.79 7.53955 58.01C7.83667 55.5052 8.54271 53.0661 9.62955 50.79C11.2026 49.045 13.0586 47.5778 15.1195 46.45C16.9895 45.34 18.4695 44.45 18.9595 42.32C19.2752 41.3308 19.2037 40.2586 18.7595 39.32C18.094 37.5964 17.7812 35.7568 17.8395 33.91C17.7295 29.53 20.3595 24.31 21.5095 22.25C22.5095 21.25 23.5095 20.31 24.5095 19.4C24.5535 19.5753 24.6411 19.7365 24.7641 19.8687C24.8872 20.001 25.0417 20.0999 25.2134 20.1563C25.385 20.2127 25.5681 20.2247 25.7456 20.1913C25.9231 20.1578 26.0893 20.08 26.2286 19.965C26.3679 19.85 26.4758 19.7015 26.5423 19.5336C26.6088 19.3656 26.6317 19.1835 26.6088 19.0043C26.5859 18.8251 26.5181 18.6547 26.4115 18.5088C26.305 18.3629 26.1633 18.2463 25.9995 18.17C28.2175 16.3963 30.5866 14.8203 33.0795 13.46H40.0795C41.1881 13.46 42.2513 13.9004 43.0352 14.6843C43.8191 15.4682 44.2595 16.5314 44.2595 17.64C44.2595 18.7486 43.8191 19.8118 43.0352 20.5957C42.2513 21.3796 41.1881 21.82 40.0795 21.82H30.6495C29.9872 21.8186 29.3346 21.6601 28.7453 21.3577C28.156 21.0552 27.6468 20.6174 27.2595 20.08L26.0495 20.96C26.5749 21.6893 27.2658 22.2835 28.0654 22.6937C28.8651 23.104 29.7508 23.3186 30.6495 23.32H38.1895C38.4442 24.1227 38.9458 24.8245 39.6227 25.3255C40.2997 25.8265 41.1174 26.101 41.9595 26.11H48.1295C49.0904 25.982 49.9722 25.5095 50.6108 24.7802C51.2495 24.0508 51.6016 23.1144 51.6016 22.145C51.6016 21.1756 51.2495 20.2391 50.6108 19.5098C49.9722 18.7805 49.0904 18.308 48.1295 18.18H45.7595C45.7695 18.0001 45.7695 17.8199 45.7595 17.64C45.7595 16.1336 45.1611 14.6889 44.0959 13.6237C43.0307 12.5585 41.586 11.96 40.0795 11.96H36.0795C42.4724 9.01238 49.4299 7.49052 56.4695 7.5V7.52002ZM17.8295 39.69C18.1966 40.4342 18.2541 41.2935 17.9895 42.08C17.5895 43.81 16.3995 44.51 14.6095 45.58L13.7095 46.12C14.7599 45.1727 15.5544 43.9758 16.0195 42.64C16.1391 41.8221 16.0707 40.9876 15.8196 40.2C15.7496 39.97 15.5495 39.44 15.2195 38.59C14.8895 37.74 14.4995 36.71 14.3295 36.16C13.9236 34.5978 13.9582 32.9538 14.4295 31.41C15.7863 29.1482 17.3212 26.998 19.0195 24.98C17.6666 27.7928 16.9237 30.8599 16.8395 33.98C16.7911 35.9234 17.1275 37.8572 17.8295 39.67V39.69ZM13.3796 36.46C13.5596 37.03 13.9496 38.05 14.2896 38.95C14.5496 39.63 14.7995 40.27 14.8595 40.48C15.0677 41.0938 15.136 41.7464 15.0595 42.39C14.6895 43.8 13.2395 45.21 12.0595 46.33L11.1795 47.2L10.8995 47.5C9.31605 49.019 8.18423 50.947 7.62955 53.07C8.08577 46.3756 9.92443 39.8483 13.0295 33.9C13.0131 34.7598 13.1312 35.6168 13.3796 36.44V36.46ZM45.3795 19.68H48.0996C48.7262 19.7199 49.3141 19.997 49.7437 20.4549C50.1734 20.9128 50.4125 21.5171 50.4125 22.145C50.4125 22.7729 50.1734 23.3772 49.7437 23.8351C49.3141 24.293 48.7262 24.5701 48.0996 24.61H41.9296C41.487 24.6082 41.053 24.4876 40.673 24.2606C40.293 24.0337 39.981 23.7088 39.7695 23.32H40.0795C41.2355 23.3222 42.3649 22.9735 43.3184 22.3199C44.2719 21.6664 45.0046 20.7389 45.4196 19.66L45.3795 19.68ZM43.1895 103.61C44.3434 102.532 45.7159 101.715 47.2136 101.214C48.7114 100.714 50.2993 100.542 51.8695 100.71C53.4833 100.96 55.0246 101.554 56.3895 102.45C58.5795 103.73 60.6595 104.93 66.3895 103.22C67.1308 103.513 67.8974 103.737 68.6796 103.89C60.3087 106.061 51.5107 105.964 43.1895 103.61Z" fill="white"/>
<path d="M46.6498 61.82C47.3484 61.82 48.0402 61.6824 48.6857 61.4151C49.3312 61.1477 49.9176 60.7559 50.4116 60.2619C50.9056 59.7679 51.2975 59.1814 51.5649 58.5359C51.8322 57.8905 51.9698 57.1987 51.9698 56.5V51.82C51.9462 50.8961 51.5571 50.0193 50.8878 49.3819C50.2186 48.7445 49.3238 48.3985 48.3998 48.42H44.8898C43.9658 48.3985 43.071 48.7445 42.4018 49.3819C41.7325 50.0193 41.3434 50.8961 41.3198 51.82V56.42C41.3105 57.1258 41.4416 57.8265 41.7053 58.4812C41.969 59.136 42.3601 59.7318 42.856 60.2342C43.3519 60.7366 43.9425 61.1355 44.5938 61.4077C45.2451 61.68 45.9439 61.8201 46.6498 61.82V61.82ZM42.7898 51.82C42.8158 51.2948 43.0475 50.8009 43.435 50.4453C43.8224 50.0897 44.3343 49.901 44.8598 49.92H48.3698C48.8953 49.901 49.4072 50.0897 49.7946 50.4453C50.1821 50.8009 50.4138 51.2948 50.4398 51.82V52.82C49.9451 52.3043 49.3513 51.894 48.694 51.6136C48.0367 51.3333 47.3295 51.1887 46.6148 51.1887C45.9002 51.1887 45.1929 51.3333 44.5356 51.6136C43.8783 51.894 43.2845 52.3043 42.7898 52.82V51.82ZM46.6198 52.6001C47.3749 52.602 48.1125 52.8277 48.7394 53.2487C49.3662 53.6696 49.8543 54.2669 50.1419 54.9651C50.4295 55.6633 50.5037 56.4311 50.3552 57.1714C50.2067 57.9118 49.842 58.5915 49.3074 59.1247C48.7728 59.658 48.0921 60.0207 47.3514 60.1673C46.6107 60.3139 45.8431 60.2377 45.1457 59.9483C44.4482 59.6589 43.8522 59.1693 43.4329 58.5413C43.0136 57.9133 42.7898 57.1751 42.7898 56.42C42.803 55.4077 43.2165 54.4418 43.9398 53.7335C44.6631 53.0252 45.6375 52.632 46.6498 52.64L46.6198 52.6001Z" fill="white"/>
<path d="M66.5598 61.82C67.2584 61.82 67.9502 61.6824 68.5957 61.4151C69.2411 61.1477 69.8276 60.7559 70.3216 60.2619C70.8157 59.7679 71.2075 59.1814 71.4748 58.5359C71.7422 57.8905 71.8798 57.1987 71.8798 56.5V51.82C71.8562 50.8961 71.4671 50.0193 70.7978 49.3819C70.1286 48.7445 69.2338 48.3985 68.3098 48.42H64.8098C63.8858 48.3985 62.9911 48.7445 62.3218 49.3819C61.6526 50.0193 61.2634 50.8961 61.2399 51.82V56.42C61.2293 57.1253 61.359 57.8258 61.6216 58.4805C61.8842 59.1352 62.2744 59.7312 62.7695 60.2337C63.2645 60.7362 63.8546 61.1352 64.5053 61.4076C65.156 61.6799 65.8544 61.8201 66.5598 61.82V61.82ZM62.7399 51.82C62.7658 51.2948 62.9976 50.8009 63.385 50.4453C63.7724 50.0897 64.2843 49.901 64.8098 49.92H68.3098C68.8353 49.901 69.3472 50.0897 69.7347 50.4453C70.1221 50.8009 70.3539 51.2948 70.3798 51.82V52.82C69.886 52.3046 69.293 51.8944 68.6365 51.6142C67.98 51.3339 67.2736 51.1895 66.5598 51.1895C65.846 51.1895 65.1396 51.3339 64.4831 51.6142C63.8266 51.8944 63.2336 52.3046 62.7399 52.82V51.82ZM66.5598 52.6001C67.3153 52.6001 68.0539 52.8241 68.6821 53.2438C69.3103 53.6636 69.7999 54.2601 70.089 54.9582C70.3782 55.6562 70.4538 56.4242 70.3064 57.1653C70.1591 57.9063 69.7952 58.5869 69.261 59.1212C68.7267 59.6554 68.0461 60.0193 67.3051 60.1667C66.5641 60.3141 65.796 60.2384 65.098 59.9492C64.3999 59.6601 63.8033 59.1705 63.3836 58.5423C62.9639 57.9141 62.7399 57.1755 62.7399 56.42C62.7504 55.4138 63.1575 54.4525 63.8727 53.7447C64.588 53.037 65.5536 52.64 66.5598 52.64V52.6001Z" fill="white"/>
<path d="M56.4696 40.37C56.6417 40.37 56.8099 40.319 56.9529 40.2234C57.096 40.1278 57.2075 39.9919 57.2734 39.8329C57.3392 39.674 57.3564 39.499 57.3229 39.3303C57.2893 39.1615 57.2064 39.0065 57.0848 38.8848C56.9631 38.7632 56.8081 38.6803 56.6393 38.6467C56.4706 38.6132 56.2956 38.6304 56.1367 38.6962C55.9777 38.7621 55.8418 38.8736 55.7462 39.0167C55.6506 39.1597 55.5996 39.3279 55.5996 39.5C55.5996 39.7307 55.6913 39.952 55.8544 40.1152C56.0176 40.2783 56.2389 40.37 56.4696 40.37V40.37Z" fill="white"/>
<path d="M57.3397 21.08C57.5118 21.08 57.68 21.029 57.8231 20.9334C57.9661 20.8378 58.0776 20.7019 58.1435 20.543C58.2093 20.384 58.2266 20.209 58.193 20.0403C58.1594 19.8715 58.0766 19.7165 57.9549 19.5948C57.8332 19.4732 57.6782 19.3903 57.5095 19.3567C57.3407 19.3232 57.1657 19.3404 57.0068 19.4062C56.8478 19.4721 56.7119 19.5836 56.6163 19.7267C56.5207 19.8698 56.4697 20.0379 56.4697 20.21C56.4697 20.4408 56.5614 20.662 56.7245 20.8252C56.8877 20.9883 57.109 21.08 57.3397 21.08V21.08Z" fill="white"/>
<path d="M47.49 65.53C47.49 65.3579 47.439 65.1897 47.3434 65.0466C47.2478 64.9035 47.1119 64.7921 46.9529 64.7262C46.794 64.6604 46.6191 64.6431 46.4503 64.6767C46.2815 64.7102 46.1265 64.7931 46.0048 64.9148C45.8831 65.0364 45.8003 65.1915 45.7667 65.3603C45.7332 65.529 45.7504 65.7039 45.8162 65.8629C45.8821 66.0219 45.9936 66.1577 46.1367 66.2533C46.2797 66.3489 46.4479 66.4 46.62 66.4C46.8507 66.4 47.0721 66.3083 47.2352 66.1452C47.3984 65.982 47.49 65.7607 47.49 65.53Z" fill="white"/>
<path d="M23.6496 39.48C23.6516 39.3051 23.6014 39.1336 23.5055 38.9874C23.4095 38.8411 23.2722 38.7268 23.111 38.659C22.9498 38.5911 22.772 38.5729 22.6004 38.6065C22.4288 38.6402 22.2711 38.7242 22.1474 38.8479C22.0237 38.9715 21.9397 39.1292 21.9061 39.3009C21.8724 39.4725 21.8907 39.6502 21.9586 39.8114C22.0264 39.9726 22.1407 40.11 22.287 40.2059C22.4332 40.3018 22.6047 40.352 22.7796 40.3501C23.0103 40.3501 23.2316 40.2584 23.3948 40.0952C23.5579 39.9321 23.6496 39.7107 23.6496 39.48Z" fill="white"/>
<path d="M93.6496 42.27C93.8162 42.3121 93.9917 42.3038 94.1536 42.2462C94.3156 42.1886 94.4569 42.0843 94.5596 41.9465C94.6624 41.8087 94.7221 41.6436 94.731 41.4719C94.74 41.3002 94.6979 41.1297 94.6101 40.982C94.5222 40.8342 94.3926 40.7157 94.2376 40.6416C94.0825 40.5674 93.9089 40.5408 93.7387 40.5652C93.5686 40.5896 93.4094 40.6639 93.2814 40.7786C93.1535 40.8934 93.0623 41.0435 93.0195 41.21C92.991 41.321 92.9847 41.4365 93.001 41.5499C93.0173 41.6634 93.0558 41.7724 93.1143 41.8709C93.1729 41.9694 93.2503 42.0554 93.3421 42.1239C93.434 42.1923 93.5385 42.242 93.6496 42.27Z" fill="white"/>
<path d="M68.7801 64.66C68.6081 64.66 68.4399 64.711 68.2968 64.8066C68.1537 64.9022 68.0422 65.0381 67.9764 65.1971C67.9105 65.3561 67.8933 65.5309 67.9269 65.6997C67.9604 65.8685 68.0433 66.0235 68.165 66.1452C68.2866 66.2669 68.4416 66.3497 68.6104 66.3833C68.7792 66.4169 68.9541 66.3996 69.1131 66.3338C69.2721 66.268 69.4079 66.1564 69.5035 66.0134C69.5991 65.8703 69.6501 65.7021 69.6501 65.53C69.6501 65.2993 69.5585 65.078 69.3953 64.9148C69.2322 64.7516 69.0109 64.66 68.7801 64.66Z" fill="white"/>
<path d="M49.1501 56.46H48.4001C48.4002 56.933 48.2129 57.3868 47.8794 57.7222C47.5459 58.0576 47.0931 58.2474 46.6201 58.25V59C47.292 58.9974 47.9355 58.7286 48.4097 58.2525C48.8839 57.7764 49.1502 57.1319 49.1501 56.46Z" fill="white"/>
<path d="M66.5602 54.45V53.7C65.8883 53.7027 65.2449 53.9715 64.7707 54.4475C64.2965 54.9236 64.0303 55.5681 64.0303 56.24H64.7803C64.7803 55.767 64.9675 55.3132 65.301 54.9778C65.6346 54.6424 66.0872 54.4527 66.5602 54.45Z" fill="white"/>
<path d="M48.0701 67.07L46.6201 67.43C47.5501 71.21 52.2301 73.96 57.7601 73.96C63.2901 73.96 67.9701 71.21 68.9001 67.43L67.4501 67.07C66.6901 70.14 62.5201 72.46 57.7601 72.46C53.0001 72.46 48.8301 70.14 48.0701 67.07Z" fill="white"/>
<path d="M51.6498 96.26L54.8198 98.09C55.2113 98.3118 55.6726 98.3762 56.1098 98.27C56.5342 98.1429 56.8927 97.8562 57.1098 97.47L58.9398 94.31C59.1656 93.917 59.2273 93.4506 59.1112 93.0125C58.9951 92.5743 58.7106 92.1997 58.3198 91.97L55.1498 90.14C54.9573 90.0263 54.7438 89.9526 54.5222 89.9233C54.3005 89.8941 54.0752 89.91 53.8598 89.97C53.4381 90.0965 53.0805 90.379 52.8598 90.76L51.0298 93.93C50.8044 94.3215 50.7431 94.7863 50.8593 95.2229C50.9754 95.6595 51.2596 96.0323 51.6498 96.26V96.26ZM52.3298 94.68L54.1598 91.51C54.1887 91.4648 54.2338 91.4323 54.2858 91.4193C54.3379 91.4063 54.393 91.4137 54.4398 91.44L57.6098 93.27C57.6517 93.3017 57.6814 93.3467 57.6942 93.3976C57.7069 93.4486 57.7019 93.5023 57.6798 93.55L55.8498 96.72C55.8184 96.7622 55.7739 96.7929 55.7233 96.8073C55.6727 96.8218 55.6188 96.8192 55.5698 96.8L52.3998 94.96C52.3756 94.9475 52.3541 94.9302 52.3369 94.9091C52.3196 94.888 52.3068 94.8635 52.2993 94.8373C52.2918 94.8111 52.2898 94.7836 52.2933 94.7565C52.2968 94.7295 52.3058 94.7034 52.3198 94.68H52.3298Z" fill="white"/>
<path d="M52.1603 88.43C52.2504 88.2611 52.3057 88.0758 52.3229 87.8851C52.3401 87.6944 52.3188 87.5023 52.2603 87.32L51.8803 86.1C51.8286 85.9135 51.7402 85.7392 51.6201 85.5874C51.5 85.4356 51.3508 85.3094 51.1812 85.2162C51.0116 85.123 50.825 85.0647 50.6325 85.0448C50.44 85.0248 50.2454 85.0436 50.0603 85.1L48.8403 85.48C48.6538 85.5316 48.4795 85.6201 48.3277 85.7402C48.176 85.8603 48.0497 86.0095 47.9565 86.1791C47.8633 86.3487 47.805 86.5353 47.7851 86.7278C47.7651 86.9203 47.7839 87.1148 47.8403 87.3L48.2203 88.52C48.3172 88.8118 48.5037 89.0656 48.7533 89.2452C49.0029 89.4247 49.3029 89.5209 49.6103 89.52C49.7558 89.5204 49.9005 89.5002 50.0403 89.46L51.2603 89.08C51.6333 88.9883 51.956 88.7552 52.1603 88.43ZM51.0103 88.18L49.7903 88.56C49.7332 88.5785 49.673 88.5854 49.6132 88.5802C49.5534 88.5751 49.4952 88.558 49.4421 88.5301C49.389 88.5021 49.342 88.4638 49.3039 88.4175C49.2658 88.3711 49.2374 88.3175 49.2203 88.26L48.8403 87.04C48.8218 86.9829 48.8149 86.9226 48.82 86.8628C48.8252 86.803 48.8423 86.7449 48.8702 86.6918C48.8982 86.6386 48.9364 86.5917 48.9828 86.5536C49.0292 86.5155 49.0828 86.4871 49.1403 86.47L50.3603 86.09H50.4903C50.5882 86.0896 50.6835 86.1204 50.7627 86.178C50.8418 86.2355 50.9006 86.3168 50.9303 86.41L51.3103 87.63C51.3499 87.7433 51.3499 87.8667 51.3103 87.98C51.2768 88.0322 51.2328 88.077 51.1812 88.1114C51.1296 88.1458 51.0714 88.1691 51.0103 88.18Z" fill="white"/>
<path d="M57.7399 28.97L54.7899 26.03L57.7399 23.08L56.6799 22.02L52.6699 26.03L56.6799 30.03L57.7399 28.97Z" fill="white"/>
<path d="M56.8098 17.09L57.8698 18.15L61.8698 14.14L57.8698 10.14L56.7998 11.2L59.7498 14.14L56.8098 17.09Z" fill="white"/>
<path d="M12.1499 58.04C11.7188 58.2982 11.3437 58.64 11.0466 59.0453C10.7495 59.4506 10.5364 59.9112 10.4199 60.4L11.8699 60.76C12.0217 60.16 12.4021 59.6432 12.9299 59.32C13.1908 59.1608 13.4808 59.055 13.7829 59.0086C14.085 58.9623 14.3933 58.9763 14.6899 59.05L15.0399 57.59C14.5523 57.471 14.046 57.4495 13.55 57.5267C13.0541 57.6039 12.5783 57.7783 12.1499 58.04V58.04Z" fill="white"/>
<path d="M86.7701 46.3C92.2001 45.55 92.1301 42.22 92.1301 42.08H91.1301C91.1301 42.19 91.1301 44.66 86.6301 45.28C81.4801 45.99 80.3101 46.51 78.5801 50.85L79.5101 51.22C81.0901 47.3 81.8101 46.98 86.7701 46.3Z" fill="white"/>
<path d="M82.5096 69.6C87.5796 67.52 86.6897 64.32 86.6497 64.18L85.6497 64.46C85.6497 64.56 86.2797 66.96 82.0897 68.67C77.2697 70.67 76.2797 71.43 75.6797 76.07L76.6797 76.2C77.2497 71.98 77.8796 71.49 82.5096 69.6Z" fill="white"/>
<path d="M55.1104 84.95L56.1104 84.77C55.0604 79.15 50.1104 78.77 45.0604 78.86C42.9563 78.8694 40.9114 78.1642 39.2604 76.86C38.6289 76.2493 38.1317 75.5137 37.8004 74.7C37.3867 73.5757 36.7051 72.5692 35.8147 71.7676C34.9243 70.9661 33.8519 70.3937 32.6904 70.1C27.9304 68.57 27.2704 68.1 26.4004 63.96L25.4004 64.17C26.4004 68.75 27.4004 69.46 32.4004 71.05C33.318 71.3213 34.181 71.7511 34.9504 72.32C35.8099 73.115 36.4915 74.0829 36.9504 75.16C37.3427 76.1094 37.9363 76.9624 38.6904 77.66C40.5177 79.1118 42.7865 79.8951 45.1204 79.88C50.9304 79.74 54.2804 80.53 55.1104 84.95Z" fill="white"/>
<path d="M96.6499 80.95C96.6499 81.05 97.2799 83.45 93.0799 85.17C88.2699 87.17 87.2699 87.93 86.6699 92.56L87.6699 92.69C88.2199 88.48 88.8399 87.99 93.4699 86.09C98.5399 84.02 97.6599 80.81 97.6199 80.67L96.6499 80.95Z" fill="white"/>
<path d="M87.7898 40.03C88.2782 40.2217 88.8223 40.2138 89.3049 40.0081C89.7875 39.8023 90.1699 39.4151 90.3697 38.93L89.4598 38.51C89.4144 38.6373 89.3437 38.7541 89.2519 38.8533C89.1602 38.9525 89.0493 39.032 88.9259 39.0872C88.8025 39.1423 88.6693 39.1719 88.5342 39.1741C88.399 39.1763 88.2649 39.1511 88.1398 39.1C87.8155 39.0172 87.5365 38.8106 87.3627 38.5247C87.1889 38.2387 87.134 37.896 87.2098 37.57C87.3598 37.08 87.9097 36.65 88.9997 36.92C91.5297 37.55 91.3098 40.39 91.2998 40.51L92.2998 40.6C92.4301 39.5871 92.193 38.561 91.6316 37.7078C91.0702 36.8547 90.2216 36.2311 89.2398 35.95C88.967 35.8316 88.6727 35.7706 88.3753 35.7707C88.078 35.7708 87.7838 35.832 87.5111 35.9506C87.2384 36.0691 86.9929 36.2424 86.79 36.4597C86.587 36.6771 86.4309 36.9338 86.3313 37.2141C86.2318 37.4943 86.1908 37.7919 86.2111 38.0886C86.2314 38.3852 86.3124 38.6746 86.4491 38.9387C86.5859 39.2027 86.7755 39.4359 87.0061 39.6236C87.2367 39.8113 87.5035 39.9497 87.7898 40.03V40.03Z" fill="white"/>
<path d="M33.8496 38.82C28.7896 37.59 27.5196 37.64 24.3096 41.04L25.0396 41.73C27.9596 38.64 28.7496 38.61 33.6096 39.79C38.9396 41.09 40.0996 37.97 40.1496 37.84L39.2096 37.5C39.1696 37.55 38.2496 39.82 33.8496 38.82Z" fill="white"/>
<path d="M39.7197 31.03C38.3297 30.03 37.0797 30.38 36.4497 31.17C36.1002 31.6425 35.9486 32.2327 36.027 32.8152C36.1055 33.3976 36.4077 33.9266 36.8696 34.29C37.2526 34.6472 37.7604 34.84 38.2839 34.8269C38.8075 34.8139 39.3051 34.596 39.6697 34.22L38.9797 33.49C38.8904 33.5923 38.7812 33.6754 38.6588 33.7341C38.5363 33.7928 38.4033 33.826 38.2676 33.8316C38.1319 33.8373 37.9965 33.8152 37.8696 33.7668C37.7428 33.7183 37.6271 33.6446 37.5297 33.55C37.2603 33.3535 37.0782 33.0596 37.0222 32.7309C36.9661 32.4022 37.0406 32.0646 37.2297 31.79C37.5597 31.39 38.2296 31.19 39.1296 31.79C41.2596 33.31 40.0097 35.87 39.9597 35.98L40.8497 36.43C41.3325 35.5421 41.4839 34.5116 41.2769 33.5224C41.0699 32.5332 40.518 31.6498 39.7197 31.03V31.03Z" fill="white"/>
<path d="M73.9504 18.34C74.1771 18.1368 74.3588 17.8885 74.4836 17.6109C74.6085 17.3333 74.6739 17.0326 74.6755 16.7282C74.6772 16.4238 74.615 16.1224 74.4931 15.8435C74.3712 15.5646 74.1922 15.3142 73.9677 15.1087C73.7432 14.9031 73.4781 14.7468 73.1896 14.6499C72.901 14.553 72.5954 14.5176 72.2923 14.546C71.9892 14.5744 71.6954 14.6659 71.4299 14.8147C71.1643 14.9635 70.9329 15.1663 70.7504 15.41C70.381 15.7843 70.1738 16.289 70.1738 16.815C70.1738 17.3409 70.381 17.8457 70.7504 18.22L71.4905 17.55C71.3921 17.4565 71.3138 17.3441 71.2603 17.2195C71.2068 17.0948 71.1792 16.9606 71.1792 16.825C71.1792 16.6893 71.2068 16.5552 71.2603 16.4305C71.3138 16.3059 71.3921 16.1934 71.4905 16.1C71.6897 15.8326 71.9868 15.655 72.3167 15.6063C72.6466 15.5576 72.9824 15.6416 73.2504 15.84C73.6504 16.17 73.8305 16.84 73.1605 17.74C71.5905 19.83 69.0504 18.52 68.9504 18.46L68.4805 19.35C69.1991 19.7175 69.9934 19.9126 70.8005 19.92C71.4137 19.928 72.0198 19.7887 72.568 19.5138C73.1161 19.2388 73.5902 18.8363 73.9504 18.34V18.34Z" fill="white"/>
<path d="M24.0497 44.47L24.4797 45.38C24.5962 45.3099 24.7259 45.2642 24.8607 45.2459C24.9955 45.2276 25.1326 45.237 25.2637 45.2735C25.3947 45.31 25.517 45.3729 25.6229 45.4583C25.7288 45.5436 25.8162 45.6497 25.8797 45.77C26.0755 46.039 26.158 46.374 26.1094 46.7031C26.0608 47.0322 25.8849 47.3292 25.6197 47.53C25.1897 47.82 24.4897 47.8 23.8297 46.9C22.2797 44.79 24.2597 42.74 24.3497 42.66L23.6397 41.95C22.8898 42.646 22.4147 43.5881 22.3009 44.6049C22.1871 45.6216 22.4422 46.6454 23.0197 47.49C23.2407 47.8422 23.5433 48.1361 23.9018 48.3467C24.2604 48.5574 24.6644 48.6785 25.0797 48.7C25.4669 48.6952 25.8448 48.5807 26.1697 48.37C26.6476 48.0277 26.9741 47.5133 27.0805 46.9351C27.1868 46.3569 27.0646 45.76 26.7397 45.27C26.4861 44.8103 26.0619 44.4686 25.5586 44.319C25.0553 44.1693 24.5133 44.2236 24.0497 44.47V44.47Z" fill="white"/>
<path d="M96.5502 79.71L97.5502 79.4C96.7302 76.88 97.7101 75.71 97.7601 75.66L97.0101 74.99C96.9101 75.05 95.5402 76.6 96.5502 79.71Z" fill="white"/>
</g>
<defs>
<clipPath id="clip0">
<rect width="100.93" height="100.93" fill="white" transform="translate(6 6)"/>
</clipPath>
</defs>
</svg>
