<svg width="46" height="43" viewBox="0 0 46 43" fill="none" xmlns="http://www.w3.org/2000/svg">
<g clip-path="url(#clip0)">
<path d="M23.1755 21.4638L19.9271 16.4002C17.8667 13.1874 17.8667 9.15391 19.9271 5.92364L23.1755 0.877441L26.4238 5.92364C28.4842 9.13645 28.4842 13.1699 26.4238 16.4002L23.1755 21.4638Z" fill="#F556A2"/>
<path d="M23.1755 42.9581L19.9271 37.9119C17.8667 34.6991 17.8667 30.6656 19.9271 27.4354L23.1755 22.3892L26.4238 27.4354C28.4842 30.6482 28.4842 34.6816 26.4238 37.9119L23.1755 42.9581Z" fill="#F556A2"/>
<path d="M22.6932 21.8652L17.3288 24.9209C13.9134 26.8591 9.62555 26.8591 6.19158 24.9209L0.808594 21.8652L6.17301 18.8096C9.58842 16.8714 13.8762 16.8714 17.3102 18.8096L22.6932 21.8652Z" fill="#F556A2"/>
<path d="M45.5428 21.8652L40.1784 24.9209C36.763 26.8591 32.4752 26.8591 29.0412 24.9209L23.6768 21.8652L29.0412 18.8096C32.4566 16.8714 36.7444 16.8714 40.1784 18.8096L45.5428 21.8652Z" fill="#F556A2"/>
</g>
<defs>
<clipPath id="clip0">
<rect width="44.7344" height="42.0808" fill="white" transform="translate(0.808594 0.877441)"/>
</clipPath>
</defs>
</svg>
