<svg width="112" height="112" viewBox="0 0 112 112" fill="none" xmlns="http://www.w3.org/2000/svg">
<circle cx="56" cy="56" r="55.25" stroke="white" stroke-width="1.5"/>
<path d="M88.7742 17.2801V17.23H88.7242C80.5119 10.1711 70.2521 5.9324 59.4522 5.13681C48.6524 4.34122 37.8821 7.03071 28.7242 12.8101C20.871 17.7474 14.5223 24.7438 10.3687 33.0382C6.21508 41.3326 4.41571 50.6073 5.16635 59.8531C5.91699 69.099 9.18888 77.962 14.626 85.4777C20.0632 92.9935 27.4574 98.8742 36.0042 102.48V102.58H36.2442C47.3919 107.232 59.8339 107.753 71.3314 104.049C82.8288 100.344 92.6267 92.6583 98.9621 82.3735C105.297 72.0887 107.754 59.8805 105.89 47.9457C104.026 36.0109 97.9638 25.1333 88.7942 17.27L88.7742 17.2801ZM81.5442 97.66H74.2442V99.1801H78.9742C73.1394 102.317 66.729 104.239 60.1306 104.828C53.5322 105.418 46.8827 104.663 40.5842 102.61H58.4542V101.11H36.5142C35.1442 100.53 33.8042 99.8801 32.5142 99.1801H68.1042V97.6801H29.9042C28.9042 97.0301 27.8342 96.34 26.8342 95.61H79.4742V94.11H42.6542L38.6542 89.2501L37.4842 90.1901L40.6742 94.11H36.2842L30.2442 86.58L29.0742 87.58L34.4042 94.1401H31.4042L21.2442 84.0201L20.2442 85.0901L29.3142 94.09H24.8942C18.8041 89.2035 13.9654 82.9369 10.7784 75.8088C7.59145 68.6807 6.14786 60.8961 6.56712 53.0992C6.98638 45.3024 9.25643 37.7174 13.1894 30.9722C17.1224 24.227 22.6053 18.5154 29.1842 14.3101H71.8842V12.8101H31.6442C37.535 9.49224 44.0466 7.42465 50.7723 6.73642C57.4981 6.04819 64.2935 6.7541 70.7342 8.81006H60.1842V10.3101H74.6142V10.24C78.8394 12.0176 82.7972 14.3735 86.3742 17.24H65.5142V18.74H88.1642C93.9679 23.8132 98.4979 30.1796 101.389 37.3256C104.279 44.4715 105.45 52.1969 104.805 59.8784C104.161 67.5599 101.72 74.9824 97.6796 81.547C93.639 88.1116 88.1119 93.6345 81.5442 97.67V97.66Z" fill="white"/>
<path d="M83.9441 37.54H73.8341V39.04H83.9441C84.3959 39.04 84.8293 39.2188 85.1497 39.5374C85.4702 39.8559 85.6515 40.2883 85.6541 40.7401V73.0601C85.6515 73.5128 85.4705 73.9462 85.1504 74.2663C84.8303 74.5864 84.3968 74.7674 83.9441 74.7701H30.5541C30.1023 74.7674 29.67 74.5861 29.3514 74.2657C29.0329 73.9453 28.8541 73.5119 28.8541 73.0601V40.7401C28.8541 40.2892 29.0332 39.8568 29.352 39.538C29.6709 39.2192 30.1033 39.04 30.5541 39.04H55.7241V37.54H30.5541C29.7054 37.54 28.8915 37.8772 28.2914 38.4773C27.6913 39.0774 27.3541 39.8914 27.3541 40.7401V73.0601C27.3541 73.9097 27.6909 74.7246 28.2908 75.3263C28.8906 75.928 29.7045 76.2674 30.5541 76.2701H83.9441C84.3657 76.2701 84.7831 76.187 85.1725 76.0257C85.562 75.8644 85.9159 75.6279 86.2139 75.3299C86.512 75.0318 86.7485 74.6779 86.9098 74.2885C87.0711 73.899 87.1541 73.4816 87.1541 73.0601V40.7401C87.1515 39.8904 86.8121 39.0765 86.2104 38.4767C85.6087 37.8769 84.7937 37.54 83.9441 37.54Z" fill="white"/>
<path d="M55.8741 57.6401C58.3181 57.1916 60.6262 56.1874 62.6202 54.7049C64.6142 53.2224 66.2408 51.3013 67.3741 49.0901C69.0541 45.6001 70.1341 39.6701 65.7841 31.2101L64.4541 31.9001C67.6741 38.1601 68.2141 43.9001 66.0241 48.4401C64.9926 50.4453 63.5136 52.1863 61.7015 53.5285C59.8895 54.8706 57.7929 55.7779 55.5741 56.1801C50.9041 57.1201 47.5741 59.1201 45.5741 62.1201C44.7905 63.3392 44.2474 64.6969 43.9741 66.1201C42.8141 64.6101 41.3141 62.2201 41.4641 60.5301C41.4839 60.2608 41.5643 59.9995 41.6994 59.7657C41.8345 59.5319 42.0207 59.3317 42.2441 59.1801C43.3175 58.5011 44.5024 58.017 45.7441 57.7501C49.2041 56.7501 53.5041 55.4901 52.1441 48.5601C52.0141 47.6501 51.9341 45.0401 53.0941 43.9801C53.4471 43.7151 53.8606 43.5425 54.2972 43.4779C54.7338 43.4133 55.1796 43.4587 55.5941 43.6101C59.5941 44.6101 62.3441 44.1101 63.8941 42.2801C66.8941 38.7601 63.8441 31.5401 63.7141 31.2301L62.3341 31.8201C63.1141 33.6701 64.7141 38.9701 62.7441 41.3101C61.5941 42.6701 59.3041 42.9601 55.9441 42.1501C55.2925 41.9329 54.5963 41.8851 53.921 42.011C53.2458 42.137 52.6137 42.4326 52.0841 42.8701C50.0841 44.6901 50.6341 48.6101 50.6641 48.8101C51.7641 54.4401 48.7841 55.3001 45.3241 56.3101C43.8998 56.6276 42.5446 57.2002 41.3241 58.0001C40.9528 58.2798 40.6462 58.6363 40.4253 59.0453C40.2044 59.4543 40.0744 59.9062 40.0441 60.3701C39.7541 63.6501 43.6441 67.9901 43.8041 68.1701C43.7717 68.9909 43.8321 69.8128 43.9841 70.6201L44.0541 70.9301L44.3341 71.1001C46.2058 72.1495 48.2773 72.7934 50.4141 72.9901L50.5241 71.4901C48.732 71.3197 46.9898 70.8035 45.3941 69.9701C45.0555 67.503 45.5896 64.9951 46.9041 62.8801C48.5941 60.2701 51.6241 58.5001 55.8741 57.6401Z" fill="white"/>
<path d="M65.7641 59.0401H65.2041C61.4741 58.9701 58.7141 59.8601 56.9841 61.6601C56.2418 62.484 55.6804 63.4542 55.3359 64.5083C54.9914 65.5623 54.8716 66.6769 54.9841 67.7801L56.4841 67.7001C56.3762 66.803 56.4604 65.8932 56.7311 65.0312C57.0017 64.1691 57.4527 63.3745 58.0541 62.7001C58.5569 62.1931 59.1461 61.78 59.7941 61.4801C58.7941 63.4801 59.8641 64.8401 60.7941 66.1001C61.6746 67.0079 62.1785 68.2156 62.2041 69.4801C62.1973 69.7887 62.1241 70.0922 61.9895 70.3701C61.8549 70.6479 61.662 70.8935 61.4241 71.0901C59.9841 72.3001 56.8741 72.2301 55.7941 72.0901L55.6141 73.5801C56.1187 73.6366 56.6263 73.6633 57.1341 73.6601C58.6541 73.6601 60.9541 73.4301 62.3841 72.2301C62.7836 71.9043 63.1083 71.4964 63.3361 71.0339C63.5639 70.5715 63.6894 70.0654 63.7041 69.5501C63.6956 67.9348 63.086 66.3805 61.9941 65.1901C60.8441 63.6501 60.2041 62.7801 62.1541 60.7501C63.0822 60.5916 64.0225 60.5146 64.9641 60.5201H65.1141C69.2241 60.8201 72.2441 59.9401 74.1141 57.8801C75.9841 55.8201 76.4641 52.8801 75.7941 49.4101L74.3241 49.6901C74.6541 51.4501 74.9241 54.6901 72.9941 56.8801C71.5441 58.4801 69.1141 59.1801 65.7641 59.0401Z" fill="white"/>
<path d="M72.0842 78.9101H47.0142C46.3883 78.9101 45.788 79.1587 45.3454 79.6013C44.9028 80.0439 44.6542 80.6442 44.6542 81.2701C44.6542 81.896 44.9028 82.4963 45.3454 82.9388C45.788 83.3814 46.3883 83.6301 47.0142 83.6301H72.0842C72.7101 83.6301 73.3104 83.3814 73.7529 82.9388C74.1955 82.4963 74.4442 81.896 74.4442 81.2701C74.4442 80.6442 74.1955 80.0439 73.7529 79.6013C73.3104 79.1587 72.7101 78.9101 72.0842 78.9101ZM72.0842 82.1301H47.0142C46.7861 82.1301 46.5673 82.0395 46.4061 81.8782C46.2448 81.7169 46.1542 81.4982 46.1542 81.2701C46.1542 81.042 46.2448 80.8233 46.4061 80.662C46.5673 80.5007 46.7861 80.4101 47.0142 80.4101H72.0842C72.3123 80.4101 72.531 80.5007 72.6923 80.662C72.8536 80.8233 72.9442 81.042 72.9442 81.2701C72.9442 81.4982 72.8536 81.7169 72.6923 81.8782C72.531 82.0395 72.3123 82.1301 72.0842 82.1301Z" fill="white"/>
<path d="M27.0441 75.5201H25.5441C25.5467 76.3697 25.8861 77.1836 26.4878 77.7834C27.0895 78.3833 27.9045 78.7201 28.7541 78.7201V77.1801C28.3083 77.1828 27.8793 77.0104 27.5595 76.6999C27.2396 76.3894 27.0545 75.9657 27.0441 75.5201Z" fill="white"/>
<path d="M89.3841 39.3101C89.5171 38.9096 89.5688 38.4866 89.5362 38.0659C89.5036 37.6452 89.3873 37.2353 89.1941 36.8601C89.0024 36.485 88.7385 36.1515 88.4176 35.8787C88.0967 35.6058 87.7251 35.399 87.3241 35.2701L86.8641 36.7001C87.2932 36.8421 87.6491 37.1472 87.8549 37.5496C88.0608 37.9519 88.1 38.4191 87.9641 38.8501L89.3841 39.3101Z" fill="white"/>
<path d="M26.2441 36.51V36.2401C26.2441 35.7388 26.045 35.2581 25.6906 34.9036C25.3361 34.5492 24.8554 34.3501 24.3541 34.3501H22.7541V32.7501C22.7515 32.2479 22.5502 31.7672 22.1941 31.413C21.8381 31.0589 21.3563 30.86 20.8541 30.86H20.5941C20.092 30.86 19.6102 31.0589 19.2542 31.413C18.8981 31.7672 18.6968 32.2479 18.6941 32.7501V34.3501H17.0941C16.5998 34.3605 16.1293 34.5643 15.7835 34.9176C15.4377 35.2709 15.244 35.7456 15.2441 36.2401V36.51C15.2441 37.0113 15.4433 37.4921 15.7977 37.8465C16.1522 38.2009 16.6329 38.4001 17.1341 38.4001H18.7341V40.0001C18.7341 40.504 18.9343 40.9872 19.2906 41.3436C19.647 41.6999 20.1302 41.9001 20.6341 41.9001H20.8941C21.3981 41.9001 21.8813 41.6999 22.2376 41.3436C22.594 40.9872 22.7941 40.504 22.7941 40.0001V38.4001H24.3941C24.8884 38.3896 25.3589 38.1859 25.7048 37.8326C26.0506 37.4792 26.2443 37.0044 26.2441 36.51ZM24.7441 36.51C24.7441 36.6135 24.7031 36.7127 24.6299 36.7858C24.5568 36.859 24.4576 36.9001 24.3541 36.9001H21.2441V40.0001C21.2441 40.1061 21.202 40.2079 21.127 40.2829C21.052 40.3579 20.9502 40.4001 20.8441 40.4001H20.5841C20.4781 40.4001 20.3763 40.3579 20.3013 40.2829C20.2263 40.2079 20.1841 40.1061 20.1841 40.0001V36.9001H17.0841C16.9807 36.9001 16.8815 36.859 16.8084 36.7858C16.7352 36.7127 16.6941 36.6135 16.6941 36.51V36.2401C16.6967 36.1374 16.7386 36.0397 16.8112 35.9671C16.8838 35.8945 16.9815 35.8526 17.0841 35.8501H20.2441V32.7501C20.2441 32.698 20.2545 32.6464 20.2748 32.5984C20.295 32.5505 20.3246 32.507 20.3619 32.4707C20.3992 32.4343 20.4433 32.4058 20.4918 32.3868C20.5403 32.3678 20.5921 32.3587 20.6441 32.36H20.9041C20.9562 32.3587 21.008 32.3678 21.0565 32.3868C21.1049 32.4058 21.1491 32.4343 21.1864 32.4707C21.2237 32.507 21.2533 32.5505 21.2735 32.5984C21.2938 32.6464 21.3042 32.698 21.3041 32.7501V35.8501H24.4041C24.5068 35.8526 24.6045 35.8945 24.6771 35.9671C24.7497 36.0397 24.7916 36.1374 24.7941 36.2401L24.7441 36.51Z" fill="white"/>
<path d="M97.1742 73.4901H95.5742V71.89C95.5715 71.3879 95.3702 70.9072 95.0141 70.553C94.6581 70.1988 94.1763 70.0001 93.6742 70.0001H93.4142C92.912 70.0001 92.4302 70.1988 92.0742 70.553C91.7182 70.9072 91.5168 71.3879 91.5142 71.89V73.4901H89.9142C89.4129 73.4901 88.9322 73.6892 88.5777 74.0436C88.2233 74.3981 88.0242 74.8788 88.0242 75.3801V75.6501C88.0242 76.1522 88.223 76.634 88.5771 76.99C88.9313 77.3461 89.412 77.5474 89.9142 77.55H91.5142V79.1801C91.5142 79.684 91.7143 80.1672 92.0707 80.5236C92.427 80.8799 92.9103 81.08 93.4142 81.08H93.6742C94.1781 81.08 94.6614 80.8799 95.0177 80.5236C95.374 80.1672 95.5742 79.684 95.5742 79.1801V77.5901H97.1742C97.6763 77.5874 98.1571 77.3861 98.5112 77.03C98.8654 76.674 99.0642 76.1922 99.0642 75.6901V75.42C99.0695 75.1685 99.0245 74.9184 98.9319 74.6845C98.8394 74.4505 98.701 74.2374 98.5249 74.0577C98.3489 73.8779 98.1388 73.7351 97.9068 73.6377C97.6748 73.5402 97.4258 73.49 97.1742 73.4901ZM97.5642 75.6501C97.5642 75.7544 97.5234 75.8547 97.4506 75.9294C97.3777 76.0041 97.2785 76.0474 97.1742 76.05H94.0742V79.1801C94.0742 79.2861 94.032 79.3879 93.957 79.4629C93.882 79.5379 93.7803 79.58 93.6742 79.58H93.4142C93.3081 79.58 93.2063 79.5379 93.1313 79.4629C93.0563 79.3879 93.0142 79.2861 93.0142 79.1801V76.0901H89.9142C89.8098 76.0874 89.7106 76.0442 89.6378 75.9694C89.5649 75.8947 89.5241 75.7944 89.5242 75.6901V75.42C89.5267 75.3174 89.5686 75.2197 89.6412 75.1471C89.7138 75.0745 89.8115 75.0326 89.9142 75.0301H93.0142V71.9301C93.0142 71.878 93.0246 71.8265 93.0448 71.7785C93.065 71.7305 93.0946 71.687 93.1319 71.6507C93.1692 71.6143 93.2134 71.5858 93.2619 71.5668C93.3103 71.5478 93.3621 71.5387 93.4142 71.54H93.6742C93.7262 71.5387 93.778 71.5478 93.8265 71.5668C93.875 71.5858 93.9192 71.6143 93.9564 71.6507C93.9937 71.687 94.0233 71.7305 94.0436 71.7785C94.0638 71.8265 94.0742 71.878 94.0742 71.9301V75.0301H97.1742C97.2768 75.0326 97.3745 75.0745 97.4471 75.1471C97.5197 75.2197 97.5616 75.3174 97.5642 75.42V75.6501Z" fill="white"/>
<path d="M73.2141 20.9501H49.9541V22.4501H73.2141V20.9501Z" fill="white"/>
<path d="M61.5841 17.2401H55.7241V18.7401H61.5841V17.2401Z" fill="white"/>
<path d="M82.4041 20.9501H76.5441V22.4501H82.4041V20.9501Z" fill="white"/>
<path d="M54.0641 71.5701C54.3293 71.5701 54.5836 71.4647 54.7712 71.2772C54.9587 71.0896 55.0641 70.8353 55.0641 70.5701C55.0641 70.3049 54.9587 70.0505 54.7712 69.8629C54.5836 69.6754 54.3293 69.5701 54.0641 69.5701C53.7989 69.5701 53.5445 69.6754 53.357 69.8629C53.1694 70.0505 53.0641 70.3049 53.0641 70.5701C53.0641 70.8353 53.1694 71.0896 53.357 71.2772C53.5445 71.4647 53.7989 71.5701 54.0641 71.5701Z" fill="white"/>
</svg>
