<svg width="112" height="112" viewBox="0 0 112 112" fill="none" xmlns="http://www.w3.org/2000/svg">
<circle cx="56" cy="56" r="55.25" stroke="white" stroke-width="1.5"/>
<path d="M96.4583 86.0953C101.81 78.9153 105.167 70.4473 106.189 61.5507C107.21 52.654 105.86 43.6454 102.275 35.4393C98.69 27.2331 92.9979 20.1214 85.7763 14.8259C78.5547 9.53044 70.0607 6.2397 61.1563 5.28768C52.252 4.33566 43.2543 5.75623 35.0764 9.40523C26.8985 13.0542 19.8315 18.8018 14.5926 26.0646C9.35372 33.3273 6.12946 41.8468 5.24705 50.7583C4.36464 59.6698 5.8555 68.6561 9.56831 76.8053C9.56831 77.1553 9.6583 77.5053 9.7183 77.8653H10.0283C11.4532 80.817 13.1612 83.6235 15.1283 86.2453L14.8683 86.5053C15.4283 87.0453 15.9483 87.5053 16.4683 87.9453C22.8982 95.82 31.5396 101.588 41.2783 104.505L41.3783 104.695L41.5983 104.595C51.522 107.484 62.0917 107.27 71.8901 103.981C81.6885 100.692 90.2471 94.4863 96.4183 86.1953V86.1953L96.4583 86.0953ZM17.5483 86.8453C14.9453 83.6528 12.7547 80.1452 11.0283 76.4053C10.81 74.373 10.9728 72.3178 11.5083 70.3453C12.7883 76.0753 16.7283 87.7353 27.8283 89.1753C37.9983 90.4953 40.9283 98.2653 41.7683 102.245C40.0283 99.3053 36.0483 93.5853 30.7683 92.1553C29.5383 91.8153 28.4283 91.5553 27.3983 91.3053C23.5383 90.3553 20.9883 89.7253 17.5483 86.8453V86.8453ZM12.6483 56.9153C11.3416 59.2833 9.36594 61.2137 6.9683 62.4653C6.9683 62.2053 6.89828 61.9353 6.85828 61.6653C9.85828 60.2153 13.7283 56.7853 12.2483 51.5553V51.4753C12.2483 51.3553 12.1983 51.2453 12.1583 51.1253C10.0083 44.7153 10.7883 41.5653 11.5383 38.5153C11.6283 38.1253 11.7283 37.7253 11.8183 37.3153C11.8183 37.7253 11.9083 38.1353 11.9583 38.5153C12.3928 40.9934 13.227 43.3846 14.4283 45.5953C15.5583 47.9353 16.5383 49.9653 16.4283 52.5953C16.3608 55.1608 15.5893 57.6585 14.1983 59.8153L14.0783 59.9153C12.4459 62.3124 10.092 64.1269 7.35828 65.0953C7.28828 64.7353 7.22828 64.3753 7.16828 64.0053C11.4783 62.2953 13.8483 57.8153 13.9483 57.6053L12.6483 56.9153ZM45.3683 33.2453L35.8483 10.7753C39.9236 8.96816 44.2267 7.72666 48.6383 7.08529L50.8983 31.6453C49.0044 31.9851 47.1511 32.5213 45.3683 33.2453ZM43.9983 33.8553C42.7809 34.4289 41.6106 35.0977 40.4983 35.8553L27.2183 15.7153C29.5122 14.0736 31.9447 12.6349 34.4883 11.4153L43.9983 33.8553ZM55.7283 32.7153C62.6239 32.7153 69.2371 35.4546 74.1131 40.3305C78.989 45.2064 81.7283 51.8196 81.7283 58.7153C81.7283 59.4153 81.7283 60.1252 81.6383 60.8252C80.8887 60.5148 80.0892 60.3421 79.2783 60.3153C78.3436 60.3453 77.4149 60.476 76.5083 60.7053C74.7774 61.1445 73.0798 61.706 71.4283 62.3853C70.8783 62.5953 70.3383 62.8352 69.7883 63.0752C72.7227 60.5851 76.232 58.8666 79.9983 58.0752C80.2096 58.0381 80.4033 57.934 80.5509 57.7783C80.6985 57.6226 80.7921 57.4235 80.8178 57.2106C80.8436 56.9976 80.8002 56.7819 80.6941 56.5955C80.5879 56.4091 80.4246 56.2618 80.2283 56.1753L74.3283 53.4853L74.0583 53.5653C73.8083 53.6453 68.2483 55.3753 61.5683 61.5653C63.8683 52.2653 67.8083 48.3553 67.8683 48.2953L68.8683 47.3653L62.3683 45.7153L62.0683 46.0853C61.7983 46.4153 55.7383 54.0853 54.4083 72.0053C53.347 70.905 52.1587 69.9349 50.8683 69.1153C48.2076 67.4228 45.1646 66.4257 42.0183 66.2153C38.8926 65.9553 35.7494 66.4278 32.8383 67.5953C32.4083 67.7853 31.9783 68.0053 31.5683 68.2353C30.3587 65.2005 29.7409 61.9623 29.7483 58.6953C29.7536 51.8031 32.4952 45.195 37.3706 40.3234C42.246 35.4518 48.8561 32.7153 55.7483 32.7153H55.7283ZM69.9283 35.1653L83.2383 14.9853C85.3609 16.4293 87.3671 18.0376 89.2383 19.7953L73.1783 37.4953C72.1579 36.6434 71.0786 35.8648 69.9483 35.1653H69.9283ZM68.6183 34.4253C67.4319 33.7982 66.2021 33.2568 64.9383 32.8053L74.4783 10.2853C77.0859 11.363 79.5953 12.6645 81.9783 14.1753L68.6183 34.4253ZM63.5283 32.3553C61.7016 31.8277 59.8247 31.4925 57.9283 31.3553L60.1583 6.82528C64.589 7.22582 68.9433 8.23533 73.0983 9.82528L63.5283 32.3553ZM104.368 63.7353C104.308 64.0953 104.238 64.4553 104.178 64.8053C101.354 63.86 98.9164 62.0161 97.2383 59.5553V59.5553L97.1283 59.4653C95.7322 57.3072 94.9604 54.8049 94.8983 52.2353C94.8083 49.6453 95.7883 47.6253 96.8983 45.2353C98.0996 43.0246 98.9338 40.6335 99.3683 38.1553C99.4183 37.7653 99.4583 37.3553 99.5083 36.9553C99.5983 37.3553 99.6883 37.7553 99.7883 38.1553C100.538 41.1553 101.308 44.3453 99.1683 50.7653C99.1683 50.8853 99.1083 50.9953 99.0783 51.1053V51.1953C97.5683 56.5453 101.658 60.0053 104.668 61.4053C104.668 61.6653 104.598 61.9253 104.568 62.1953C100.848 60.6453 98.6983 56.5953 98.6783 56.5453L97.3383 57.2353C97.4583 57.4553 99.8983 62.0953 104.368 63.7353ZM22.0583 65.8953C19.5776 68.2492 16.3894 69.7185 12.9883 70.0752C12.7383 68.9552 12.5883 68.0753 12.5183 67.5553C14.4247 66.5973 16.2565 65.4975 17.9983 64.2653C21.7283 61.4053 23.9983 57.6753 24.4183 53.7553C24.4482 53.2691 24.4482 52.7815 24.4183 52.2953C24.7518 50.6517 25.4986 49.1201 26.5883 47.8453C26.5383 48.0153 26.4983 48.1753 26.4583 48.3453C26.1531 49.6554 26.0319 51.0017 26.0983 52.3453C26.0983 52.6753 26.1483 53.0153 26.1883 53.3453C26.2134 53.6214 26.2134 53.8992 26.1883 54.1753C26.1312 54.7682 26.0174 55.3542 25.8483 55.9253C25.4857 57.1067 25.0136 58.2516 24.4383 59.3453L25.3483 59.8553C25.999 58.7145 26.535 57.5119 26.9483 56.2653C27.1723 55.6174 27.3233 54.9466 27.3983 54.2653C27.4333 53.9061 27.4333 53.5444 27.3983 53.1853C27.3983 52.8853 27.3483 52.5853 27.3483 52.2853C27.3483 51.9853 27.3483 51.8152 27.3483 51.5752C27.3483 52.1852 27.4483 52.8153 27.5483 53.5153C28.0166 56.7703 27.7118 60.09 26.6583 63.2053C25.4483 66.6853 19.9983 70.3153 17.4883 71.4053C16.2294 71.9662 14.8665 72.2558 13.4883 72.2553C13.4183 72.0153 13.3583 71.7753 13.2983 71.5553C16.9695 71.1112 20.3994 69.4945 23.0783 66.9453L22.0583 65.8953ZM28.9983 52.3553C28.5583 48.2353 29.3483 46.2753 29.6983 45.6453C30.3689 45.644 31.0382 45.5838 31.6983 45.4653C30.4903 47.629 29.582 49.9469 28.9983 52.3553V52.3553ZM19.7183 41.6253C19.0089 39.6036 18.5816 37.4937 18.4483 35.3553L32.4483 43.6853C27.8683 45.2753 21.0683 42.2653 19.7183 41.6253ZM26.8983 45.4553C25.6782 46.4746 24.6809 47.734 23.9683 49.1553C23.3789 47.1917 22.3803 45.3751 21.0383 43.8252C22.9264 44.5805 24.8914 45.1271 26.8983 45.4553V45.4553ZM18.1683 72.7753C20.9683 71.5653 26.7783 67.6653 28.1683 63.6953C28.2983 63.3253 28.4183 62.9353 28.5283 62.5553C28.8385 64.808 29.4333 67.0123 30.2983 69.1153C29.4557 69.7378 28.7108 70.4827 28.0883 71.3252C26.6583 70.9052 24.9383 71.2452 22.9783 72.3252C22.6083 72.5352 22.2183 72.8053 21.7883 73.0853C20.0283 74.2753 17.8483 75.7053 14.6083 75.3753C14.3883 74.8053 14.1883 74.2453 14.0083 73.7053C15.4415 73.6625 16.8533 73.3468 18.1683 72.7753V72.7753ZM88.9383 68.2253C89.0083 68.4353 89.0683 68.6553 89.1383 68.8653C87.6822 68.6498 86.2079 68.5827 84.7383 68.6653C82.8692 68.7516 81.0082 68.9654 79.1683 69.3053C77.3283 69.6253 75.5183 70.0353 73.7183 70.5053C71.9183 70.9753 70.1483 71.5053 68.3883 72.0853L68.5783 72.6653C70.3383 72.1453 72.1283 71.6653 73.9183 71.3153C75.7083 70.9653 77.5183 70.5853 79.3283 70.3153C81.1307 70.0595 82.9479 69.9225 84.7683 69.9053C86.4006 69.8826 88.0294 70.0607 89.6183 70.4353C89.7683 71.0153 89.9183 71.5953 90.0583 72.1753C90.3683 73.5953 90.6383 75.0253 90.8783 76.4653C88.9573 75.7239 86.9676 75.1745 84.9383 74.8252C82.357 74.3847 79.7464 74.1374 77.1283 74.0853V75.5153C79.6702 75.5743 82.2041 75.825 84.7083 76.2653C86.9324 76.6525 89.1014 77.3072 91.1683 78.2153L91.4083 80.0953H90.3683C88.121 79.2606 85.8231 78.5692 83.4883 78.0253C80.8901 77.3877 78.2449 76.9597 75.5783 76.7453C72.8858 76.5131 70.175 76.6173 67.5083 77.0553C66.141 77.2338 64.7988 77.5693 63.5083 78.0553C62.8513 78.3214 62.2244 78.6566 61.6383 79.0553C61.1823 79.332 60.7653 79.6683 60.3983 80.0553H59.7083V81.8553H56.4983V80.0553H56.2583C55.1094 79.4512 53.8947 78.9814 52.6383 78.6553C51.4069 78.3027 50.1544 78.0288 48.8883 77.8353C46.3714 77.4245 43.8281 77.1972 41.2783 77.1553C39.9983 77.1553 38.7383 77.1553 37.4583 77.1553C36.1684 77.2026 34.8826 77.3295 33.6083 77.5353C32.3106 77.7371 31.0417 78.0929 29.8283 78.5953C29.2045 78.8585 28.6138 79.1941 28.0683 79.5953C27.8416 79.7619 27.6216 79.942 27.4083 80.1353H24.2483C24.3482 79.6739 24.4785 79.2195 24.6383 78.7753C26.9238 76.8757 29.5654 75.4512 32.4083 74.5853C35.2725 73.5864 38.2757 73.0432 41.3083 72.9753L41.4583 73.0453V72.9653C44.5554 72.9943 47.6364 73.4143 50.6283 74.2153C52.0993 74.5829 53.5126 75.1516 54.8283 75.9053C55.4669 76.2721 56.0608 76.7117 56.5983 77.2153C57.1028 77.6737 57.5256 78.2148 57.8483 78.8153L58.5083 80.2053L59.2183 78.8453C60.407 76.4312 62.1556 74.3363 64.3183 72.7353C66.4971 71.0764 68.8969 69.7301 71.4483 68.7353C74.0176 67.7233 76.6668 66.9273 79.3683 66.3553C81.9575 65.7703 84.5836 65.3627 87.2283 65.1353C87.6319 65.5662 87.969 66.0548 88.2283 66.5853C88.4954 67.1182 88.7325 67.6658 88.9383 68.2253V68.2253ZM44.2183 92.9053C44.0639 91.9951 43.8365 91.0989 43.5383 90.2253C47.1141 92.3803 51.1941 93.5564 55.3683 93.6353C59.7209 93.6276 63.9908 92.4461 67.7283 90.2153C67.4498 91.1257 67.236 92.0547 67.0883 92.9953C64.6683 93.6253 57.8983 95.9953 55.8483 102.595C53.6483 95.6053 46.2683 93.3553 44.2183 92.9053V92.9053ZM62.1483 80.1253H62.2283C62.7826 79.8394 63.3576 79.5954 63.9483 79.3953C65.1654 79.0117 66.4134 78.734 67.6783 78.5653C68.9607 78.3746 70.2527 78.2544 71.5483 78.2053C72.8405 78.1303 74.136 78.1303 75.4283 78.2053C78.0335 78.3741 80.6254 78.7081 83.1883 79.2053C84.5683 79.4853 85.9483 79.7953 87.3083 80.1253H62.1483ZM41.0783 81.6253C45.4876 84.6231 50.6964 86.2261 56.0283 86.2261C61.3602 86.2261 66.5689 84.6231 70.9783 81.6253H72.8483C64.5983 87.6253 59.4083 88.1853 54.7983 88.1853C50.3683 88.1853 43.0983 85.5953 38.2983 81.6253H41.0783ZM60.0783 83.4253C60.2315 83.4266 60.3834 83.3975 60.5253 83.3398C60.6672 83.2821 60.7962 83.197 60.905 83.0891C61.0138 82.9813 61.1001 82.8529 61.159 82.7115C61.218 82.5701 61.2483 82.4184 61.2483 82.2653V81.6253H68.0983C64.3191 83.6634 60.092 84.7287 55.7983 84.7253C51.714 84.6565 47.7082 83.5925 44.1283 81.6253H55.0383V82.2653C55.0383 82.4184 55.0686 82.5701 55.1275 82.7115C55.1865 82.8529 55.2728 82.9813 55.3816 83.0891C55.4903 83.197 55.6194 83.2821 55.7613 83.3398C55.9032 83.3975 56.0551 83.4266 56.2083 83.4253H60.0783ZM29.6183 80.1253C29.8683 80.0153 30.1083 79.9152 30.3683 79.8252C31.5153 79.4349 32.6975 79.157 33.8983 78.9953C36.3598 78.6967 38.8392 78.5697 41.3183 78.6153C43.8109 78.6234 46.3013 78.7669 48.7783 79.0453C50.0183 79.1853 51.2383 79.3953 52.4583 79.6453C53.0883 79.7853 53.7283 79.9453 54.3483 80.1253H29.6183ZM36.1083 81.6253C41.2183 86.6253 49.7583 89.6853 54.8483 89.6853C59.9383 89.6853 65.8483 89.0553 75.3783 81.6253H77.0783C76.2304 83.002 74.8892 84.0034 73.3283 84.4253C71.6068 84.9027 70.1046 85.9631 69.0783 87.4253L68.8783 87.7053C64.9639 90.5873 60.2293 92.1399 55.3683 92.1353C50.6824 91.9954 46.1494 90.4366 42.3683 87.6653V87.6653C41.3355 86.244 39.8514 85.2146 38.1583 84.7453C37.313 84.5186 36.5225 84.1225 35.8349 83.581C35.1473 83.0395 34.5769 82.3639 34.1583 81.5953L36.1083 81.6253ZM70.2683 88.2953C71.1284 87.0863 72.3842 86.2161 73.8183 85.8353C75.3183 85.3153 77.0083 84.7253 78.8183 81.6253H88.0583C87.6656 81.9452 87.2549 82.2423 86.8283 82.5153C85.2462 83.2219 83.6112 83.8037 81.9383 84.2553C80.1361 84.7715 78.3635 85.3857 76.6283 86.0953C74.6681 87.0061 72.9206 88.3177 71.4983 89.9453C69.9598 91.817 68.8229 93.9853 68.1583 96.3153C68.3683 93.2153 68.9383 89.9953 70.2183 88.2953H70.2683ZM32.3683 72.3553C34.1987 71.9948 36.0723 71.9072 37.9283 72.0953C35.9473 72.4296 33.9997 72.9382 32.1083 73.6153C29.7563 74.4106 27.5304 75.5387 25.4983 76.9653C26.2343 75.7392 27.2315 74.6905 28.4189 73.8937C29.6063 73.0969 30.9548 72.5716 32.3683 72.3553V72.3553ZM60.0083 74.6053L60.1583 74.6753L60.0083 74.8753V74.6053ZM89.4883 65.6953C89.1214 64.9644 88.6152 64.3121 87.9983 63.7753L87.7983 63.6053H87.5083L86.7483 63.6853C86.0257 63.1485 85.2746 62.6511 84.4983 62.1953C83.7707 59.2543 83.5108 56.2171 83.7283 53.1953C83.8283 52.5053 83.8983 51.8753 83.9383 51.2753C83.9383 51.5053 83.9383 51.7353 83.9383 51.9553C83.9383 52.1753 83.9383 52.5653 83.8883 52.8653C83.8533 53.2211 83.8533 53.5795 83.8883 53.9353C83.9638 54.6156 84.1113 55.2861 84.3283 55.9353C84.7463 57.1801 85.2821 58.3822 85.9283 59.5253L86.8483 59.0153C86.2653 57.9252 85.793 56.7795 85.4383 55.5953C85.2636 55.029 85.1496 54.4457 85.0983 53.8553C85.0732 53.5792 85.0732 53.3014 85.0983 53.0253C85.0983 52.6853 85.1683 52.3553 85.1783 52.0253C85.2517 50.6821 85.1338 49.3353 84.8283 48.0253C84.8283 47.8553 84.7383 47.6853 84.6883 47.5153C85.7798 48.7979 86.5296 50.3355 86.8683 51.9853C86.855 52.4692 86.8717 52.9535 86.9183 53.4353C87.2228 55.528 87.9521 57.5363 89.0613 59.3368C90.1705 61.1374 91.6362 62.692 93.3683 63.9053C95.1053 65.1447 96.9377 66.2449 98.8483 67.1953C98.7683 67.7153 98.6283 68.5953 98.3783 69.7153C95.0664 69.3525 91.9526 67.9565 89.4783 65.7253L89.4883 65.6953ZM87.3683 48.8053C86.7174 47.5107 85.8325 46.3478 84.7583 45.3753C86.4983 45.3753 87.9983 45.2553 89.0583 45.1453C88.318 46.2755 87.7485 47.5088 87.3683 48.8053V48.8053ZM81.6683 45.2953C81.9683 45.8353 82.7683 47.6753 82.3583 51.7453C81.753 49.4328 80.8452 47.2103 79.6583 45.1353C80.3683 45.2053 81.0083 45.2653 81.6683 45.2953ZM84.3683 63.9553C82.5883 64.1853 80.8283 64.5053 79.0783 64.8853C76.305 65.488 73.5858 66.3174 70.9483 67.3653C68.2702 68.401 65.7494 69.8045 63.4583 71.5353C63.1283 71.7853 62.7983 72.0552 62.4583 72.3252C63.8673 69.614 65.6665 67.1242 67.7983 64.9353C69.1283 64.3953 70.4783 63.9353 71.7983 63.4253C73.4304 62.8432 75.1012 62.3753 76.7983 62.0253C77.605 61.8646 78.4257 61.7842 79.2483 61.7853C80.0306 61.8682 80.7923 62.0882 81.4983 62.4353C82.4867 62.8796 83.4454 63.3873 84.3683 63.9553V63.9553ZM60.0283 73.9553C60.0983 70.6902 60.4327 67.4363 61.0283 64.2253C67.3183 57.8053 73.0283 55.5153 74.2683 55.0653L78.2683 56.9053C74.1583 58.0553 65.4283 61.8253 60.0183 73.9853L60.0283 73.9553ZM58.4883 76.3553H58.9483C58.7983 76.5853 58.6583 76.8153 58.5183 77.0553C58.2431 76.7317 57.9493 76.4246 57.6383 76.1353L57.3183 75.8753C56.878 75.0912 56.3729 74.3452 55.8083 73.6453C56.7383 57.3753 61.7183 49.2253 62.9483 47.4453L65.9983 48.2153C63.8283 50.8953 58.3683 59.3553 58.4883 76.3553ZM51.0183 72.9253C48.1132 72.2022 45.132 71.8295 42.1383 71.8153L42.1883 71.7153C42.0383 71.6353 38.4283 69.7153 32.0783 70.9153C30.8997 71.1369 29.7584 71.5241 28.6883 72.0653C28.9655 71.66 29.2802 71.2817 29.6283 70.9353C30.6622 69.9133 31.8894 69.1076 33.2383 68.5653C36.0055 67.523 38.9758 67.1329 41.9183 67.4253C44.8531 67.6677 47.6798 68.6443 50.1383 70.2653C51.6867 71.3005 53.072 72.5611 54.2483 74.0053C53.2042 73.5545 52.1236 73.1932 51.0183 72.9253V72.9253ZM15.5183 76.9953C18.1002 76.892 20.5842 75.9789 22.6183 74.3853C23.0083 74.1153 23.3783 73.8753 23.7183 73.6753C24.7709 72.9854 26.0104 72.6363 27.2683 72.6753L27.0883 73.0453C26.1143 73.7805 25.2694 74.6727 24.5883 75.6853C21.7824 76.6489 19.1415 78.0385 16.7583 79.8053C16.2059 78.8941 15.7052 77.9526 15.2583 76.9853L15.5183 76.9953ZM18.6183 80.1153C19.4083 81.2253 21.3183 83.5453 23.9183 84.2253C27.3673 85.2338 30.7589 86.4289 34.0783 87.8053C35.8526 88.6258 37.4338 89.8117 38.7183 91.2853C40.4375 93.4405 41.6292 95.9677 42.1983 98.6653C41.1164 95.6788 39.21 93.0602 36.7002 91.1132C34.1904 89.1663 31.18 87.9707 28.0183 87.6653C25.8973 87.3641 23.8655 86.612 22.0595 85.4598C20.2535 84.3075 18.7152 82.7818 17.5483 80.9853L18.6183 80.1153ZM39.8483 90.2953C38.426 88.6677 36.6785 87.3562 34.7183 86.4453C31.3157 85.0296 27.837 83.8043 24.2983 82.7753C22.1383 82.2053 20.4783 80.1353 19.8183 79.2053C21.1241 78.2361 22.5206 77.3956 23.9883 76.6953C23.2948 77.9774 22.8343 79.3723 22.6283 80.8153L22.5583 81.6253H32.3683C34.2983 85.0353 36.0583 85.6253 37.6183 86.1853C39.0527 86.5653 40.3066 87.4401 41.1583 88.6553C42.4483 90.3453 43.0083 93.5753 43.2383 96.6553C42.5543 94.3261 41.4006 92.1616 39.8483 90.2953V90.2953ZM44.4683 94.5053C46.6183 95.0753 51.5383 96.8653 53.7583 101.505C51.2993 99.189 48.1254 97.7784 44.7583 97.5053C44.6783 96.4953 44.5983 95.4953 44.4683 94.5053V94.5053ZM66.8083 94.5953C66.7183 95.3853 66.6583 96.1753 66.6083 96.9453C63.3923 97.3187 60.3917 98.7503 58.0783 101.015C60.2883 96.9353 64.6183 95.2253 66.8083 94.5953V94.5953ZM72.6183 90.9353C73.9022 89.4652 75.4793 88.2798 77.2483 87.4553C78.9235 86.7779 80.6324 86.1871 82.3683 85.6853C84.1786 85.2181 85.94 84.5785 87.6283 83.7753C88.592 83.1722 89.4757 82.4498 90.2583 81.6253H93.0683C91.9084 83.1721 90.4545 84.4745 88.7899 85.4578C87.1253 86.4411 85.2828 87.086 83.3683 87.3553C80.2058 87.6584 77.1944 88.8531 74.6842 90.8003C72.174 92.7476 70.2681 95.3675 69.1883 98.3553C69.7345 95.6474 70.9094 93.1057 72.6183 90.9353V90.9353ZM92.8883 80.1253C92.7483 78.9153 92.5783 77.7153 92.3983 76.5253C93.1166 76.6882 93.8518 76.7654 94.5883 76.7553C95.0283 76.7553 95.5183 76.7553 96.0583 76.6753C95.429 78.073 94.676 79.4117 93.8083 80.6753V80.1653L92.8883 80.1253ZM96.7283 75.1253C93.8383 75.5053 92.5383 75.1253 92.1083 74.8653C91.9283 73.8653 91.7383 72.8653 91.5183 71.8653C91.5183 71.7553 91.4583 71.6453 91.4383 71.5353C93.2195 72.6367 95.2475 73.276 97.3383 73.3953C97.1583 73.9553 96.9583 74.5253 96.7283 75.0953V75.1253ZM97.8083 71.9353C95.2808 71.839 92.8483 70.9465 90.8583 69.3853C90.7783 69.0953 90.6783 68.7953 90.5883 68.5053C92.7936 70.0143 95.3405 70.9492 97.9983 71.2253C97.9383 71.4253 97.8783 71.6653 97.8083 71.9053V71.9353ZM102.278 71.9853H101.758C101.758 71.7353 101.688 71.4953 101.648 71.2653H102.508L102.278 71.9853ZM102.978 69.7953H101.368C101.229 69.2603 101.062 68.7329 100.868 68.2153C101.718 68.6053 102.508 68.9353 103.198 69.2153L102.978 69.7953ZM94.2583 62.7953C92.6918 61.6971 91.3659 60.2909 90.3617 58.6625C89.3576 57.0342 88.6962 55.218 88.4183 53.3252C88.2902 51.7056 88.5006 50.077 89.036 48.5431C89.5714 47.0091 90.4202 45.6034 91.5283 44.4153C93.6783 41.9053 94.0683 38.2353 94.4383 34.6853C94.5583 33.5753 94.6783 32.4853 94.8483 31.4553C94.8483 31.7853 94.8483 32.1253 94.8483 32.5053C94.9183 36.1253 95.0183 40.6252 94.2383 42.3252C93.682 43.5142 93.0333 44.6577 92.2983 45.7453C90.9071 48.0602 90.4798 50.8286 91.1083 53.4553C92.1177 56.2422 93.842 58.7148 96.1083 60.6253C98.0022 63.3229 100.717 65.3362 103.848 66.3653C103.748 66.8353 103.638 67.3053 103.528 67.7753C100.255 66.4481 97.145 64.7504 94.2583 62.7153V62.7953ZM100.538 51.6653C101.114 50.3504 102.095 49.2538 103.338 48.5353C102.843 49.7772 102.615 51.1094 102.668 52.4453C102.951 54.2087 103.751 55.8482 104.968 57.1553C104.968 58.0653 104.898 58.9753 104.828 59.8853C102.848 58.7453 99.2383 56.1253 100.538 51.5853V51.6653ZM104.158 52.3053C104.121 51.3637 104.264 50.4236 104.578 49.5353C104.8 51.2204 104.93 52.9162 104.968 54.6153C104.527 53.8873 104.251 53.0715 104.158 52.2253V52.3053ZM101.568 47.9453C102.345 44.6235 102.245 41.1569 101.278 37.8853C101.138 37.3353 101.018 36.8053 100.908 36.2553C102.33 39.497 103.397 42.8835 104.088 46.3553C103.181 46.736 102.332 47.2445 101.568 47.8653V47.9453ZM97.9083 38.0353C97.4929 40.3593 96.7062 42.6013 95.5783 44.6753C94.4083 47.0853 93.3083 49.3653 93.4083 52.3353C93.448 53.5245 93.6225 54.7054 93.9283 55.8553C93.3472 54.9703 92.8865 54.0119 92.5583 53.0053C92.067 50.8126 92.4243 48.5152 93.5583 46.5752C94.3337 45.4231 95.0191 44.2128 95.6083 42.9553C96.5383 40.9553 96.4383 36.4453 96.3583 32.4753C96.3583 30.9353 96.2883 29.1353 96.3583 28.0653C97.0083 29.0653 97.6283 29.9853 98.2083 30.9853C98.3152 33.3129 98.2148 35.6454 97.9083 37.9553V38.0353ZM92.9083 34.5253C92.5583 37.8453 92.1983 41.2853 90.3483 43.4353C90.3092 43.48 90.2725 43.5267 90.2383 43.5752C86.3774 44.0705 82.4691 44.0705 78.6083 43.5752C78.3783 43.2352 78.1483 42.9052 77.9083 42.5752L93.3983 30.7453C93.2183 31.9053 93.0883 33.1853 92.9483 34.4453L92.9083 34.5253ZM33.4683 42.6453L18.1983 33.5752C17.9083 30.9852 17.4783 28.4353 16.1983 26.4853C16.8183 25.6453 17.4783 24.8353 18.1983 24.0453L36.0183 39.6253C35.1155 40.5469 34.2769 41.5292 33.5083 42.5653L33.4683 42.6453ZM14.9683 28.2453C15.0483 29.3053 14.9683 31.1653 14.9683 32.7453C14.8883 36.7453 14.7883 41.2153 15.7083 43.2253C16.3005 44.4833 16.9892 45.6936 17.7683 46.8453C18.9023 48.7852 19.2596 51.0826 18.7683 53.2753C18.4401 54.2818 17.9794 55.2403 17.3983 56.1253C17.6943 54.9734 17.8686 53.7936 17.9183 52.6053C18.0183 49.6053 16.9183 47.3553 15.7483 44.9453C14.6181 42.8723 13.8313 40.6299 13.4183 38.3053C13.1018 35.9494 13.0014 33.5695 13.1183 31.1953C13.7083 30.1953 14.3683 29.2053 14.9683 28.2453ZM10.0583 38.1553C9.0918 41.4269 8.99186 44.8934 9.76829 48.2153C9.0304 47.6308 8.21625 47.1497 7.3483 46.7853C7.99568 43.28 9.02513 39.8562 10.4183 36.5752C10.3083 37.1052 10.1883 37.6253 10.0583 38.1553ZM7.17829 52.5752C7.09158 53.276 6.87453 53.9543 6.53831 54.5752C6.53831 53.0652 6.67831 51.5753 6.84831 50.1053C7.10347 50.9026 7.21519 51.7389 7.17829 52.5752V52.5752ZM6.53831 57.2253C7.6684 55.9588 8.40809 54.3926 8.66828 52.7153C8.72402 51.3783 8.49214 50.0449 7.98829 48.8053C9.23849 49.5177 10.2243 50.6158 10.7983 51.9353C12.0583 56.3353 8.70828 58.9353 6.69828 60.0453C6.61828 59.1153 6.56831 58.1753 6.53831 57.2253V57.2253ZM15.1983 60.8953C17.4621 58.9866 19.186 56.5179 20.1983 53.7353C20.8287 51.1043 20.3976 48.3308 18.9983 46.0153C18.2679 44.9266 17.6227 43.7832 17.0683 42.5953C16.2883 40.9053 16.3783 36.3953 16.4583 32.7753C16.4583 32.3953 16.4583 32.0653 16.4583 31.7753C16.6283 32.7753 16.7483 33.8953 16.8583 35.0053C17.2383 38.5553 17.6283 42.2353 19.7783 44.7353C20.8857 45.9236 21.7333 47.3296 22.267 48.8637C22.8008 50.3978 23.0089 52.0262 22.8783 53.6453C22.5183 57.1553 20.4483 60.5153 17.0383 63.1253C14.2117 65.0848 11.1764 66.7248 7.98829 68.0153C7.87829 67.5453 7.76828 67.0853 7.66828 66.6153C10.7223 65.5571 13.3598 63.5536 15.1983 60.8953V60.8953ZM10.5083 68.5353C10.3483 68.9653 10.1683 69.5353 10.0083 70.1153H8.6283C8.5583 69.8853 8.49829 69.6453 8.42829 69.4153C9.05829 69.1753 9.75831 68.8753 10.5083 68.5353V68.5353ZM9.2483 71.6253H9.67829C9.67829 71.8653 9.60829 72.1053 9.57829 72.3453H9.36829L9.1283 71.6353L9.2483 71.6253ZM44.7983 98.9853C48.1683 99.3853 52.2283 100.825 54.5083 104.985C51.2223 104.906 47.9526 104.498 44.7483 103.765C44.7983 102.835 44.8583 101.055 44.7983 98.9853V98.9853ZM66.5383 98.4753C66.4583 100.935 66.5383 103.005 66.6083 103.845C63.4908 104.548 60.3126 104.946 57.1183 105.035C59.2183 100.625 63.1483 98.9953 66.5383 98.4753V98.4753ZM83.5383 88.8252C94.6383 87.3852 98.5383 75.7253 99.8583 69.9953C100.483 72.3167 100.595 74.7461 100.188 77.1153C98.8252 79.9319 97.1944 82.6109 95.3183 85.1153C91.0683 89.1753 88.3683 89.8353 83.9283 90.9153C82.9283 91.1653 81.7983 91.4353 80.5683 91.7753C75.3183 93.2053 71.3383 98.9253 69.5683 101.855C70.3683 97.9153 73.3683 90.1452 83.5083 88.8252H83.5383ZM95.0383 26.1153C94.6151 26.8185 94.2793 27.5707 94.0383 28.3553L77.0383 41.3553C76.2163 40.3532 75.324 39.4108 74.3683 38.5353L90.3683 20.8853C92.0338 22.5195 93.5842 24.267 95.0083 26.1153H95.0383ZM58.6683 6.66527L56.4283 31.2353H55.7483C54.6285 31.2395 53.5099 31.3097 52.3983 31.4453L50.1483 6.91527C52.0072 6.69925 53.8769 6.58908 55.7483 6.58529C56.7283 6.56529 57.6983 6.60527 58.6683 6.66527ZM26.0283 16.5853L39.2883 36.6953C38.5383 37.2553 37.8283 37.8653 37.1383 38.4953L19.2183 22.8252C21.2872 20.5359 23.5673 18.4467 26.0283 16.5853ZM21.3683 91.0153C23.2197 91.7634 25.1339 92.3458 27.0883 92.7553C28.0883 93.0053 29.1983 93.2753 30.4183 93.6053C34.8483 94.8153 38.4183 99.6753 40.1783 102.525C33.1207 100.156 26.6903 96.2211 21.3683 91.0153ZM70.8583 102.695C72.4883 99.9553 76.2183 94.5353 80.9383 93.2553C82.1583 92.9153 83.2583 92.6553 84.2683 92.4053C86.5849 91.9431 88.8377 91.2045 90.9783 90.2053C85.3799 95.9387 78.4715 100.225 70.8483 102.695H70.8583Z" fill="white"/>
</svg>
